<?xml version="1.0" encoding="UTF-8" standalone="no"?>
<svg
   xmlns:dc="http://purl.org/dc/elements/1.1/"
   xmlns:cc="http://creativecommons.org/ns#"
   xmlns:rdf="http://www.w3.org/1999/02/22-rdf-syntax-ns#"
   xmlns:svg="http://www.w3.org/2000/svg"
   xmlns="http://www.w3.org/2000/svg"
   viewBox="0 0 1280 288"
   height="288"
   width="1280"
   xml:space="preserve"
   id="svg2"
   version="1.1"><metadata
     id="metadata8"><rdf:RDF><cc:Work
         rdf:about=""><dc:format>image/svg+xml</dc:format><dc:type
           rdf:resource="http://purl.org/dc/dcmitype/StillImage" /></cc:Work></rdf:RDF></metadata><defs
     id="defs6"><clipPath
       id="clipPath18"
       clipPathUnits="userSpaceOnUse"><path
         id="path16"
         d="M 0,0 H 960 V 216 H 0 Z" /></clipPath><clipPath
       id="clipPath28"
       clipPathUnits="userSpaceOnUse"><path
         id="path26"
         d="M 0,0 H 960 V 216 H 0 Z" /></clipPath><clipPath
       id="clipPath190"
       clipPathUnits="userSpaceOnUse"><path
         id="path188"
         d="M 0,0 H 960 V 216 H 0 Z" /></clipPath><clipPath
       id="clipPath296"
       clipPathUnits="userSpaceOnUse"><path
         id="path294"
         d="M 0,0 H 960 V 216 H 0 Z" /></clipPath><clipPath
       id="clipPath312"
       clipPathUnits="userSpaceOnUse"><path
         id="path310"
         d="M 0,0 H 960 V 216 H 0 Z" /></clipPath></defs><g
     transform="matrix(1.3333333,0,0,-1.3333333,0,288)"
     id="g10"><g
       id="g12"><g
         clip-path="url(#clipPath18)"
         id="g14"><path
           id="path20"
           style="fill:none;stroke:#000000;stroke-width:1.55999994;stroke-linecap:butt;stroke-linejoin:miter;stroke-miterlimit:8;stroke-dasharray:none;stroke-opacity:1"
           d="M 402.9,214.98 H 958.74 V 1.14 H 402.9 Z" /></g></g><g
       id="g22"><g
         clip-path="url(#clipPath28)"
         id="g24"><path
           id="path30"
           style="fill:none;stroke:#000000;stroke-width:1.55999994;stroke-linecap:butt;stroke-linejoin:miter;stroke-miterlimit:8;stroke-dasharray:none;stroke-opacity:1"
           d="M 1.26,214.86 H 219.42 V 1.02 H 1.26 Z" /></g></g><text
       id="text34"
       style="font-variant:normal;font-weight:bold;font-stretch:normal;font-size:18px;font-family:'Times New Roman';-inkscape-font-specification:TimesNewRomanPS-BoldMT;writing-mode:lr-tb;fill:#000000;fill-opacity:1;fill-rule:nonzero;stroke:none"
       transform="matrix(1,0,0,-1,30.9433,194.0669)"><tspan
         id="tspan32"
         y="0"
         x="0 12.006 21.006001 30.965401 40.924801 45.964802 55.925999 64.926003 68.526001 81.486 91.445396 101.4048 106.4448 111.4848 119.5254 128.52541 134.51939 139.5594 148.5594">Banking Application</tspan></text>
<path
       id="path36"
       style="fill:#c5e0b4;fill-opacity:1;fill-rule:evenodd;stroke:#000000;stroke-width:1.55999994;stroke-linecap:butt;stroke-linejoin:miter;stroke-miterlimit:8;stroke-dasharray:none;stroke-opacity:1"
       d="m 23.22,47.82 h 183 v -34.8 h -183 z" /><path
       id="path38"
       style="fill:#c5e0b4;fill-opacity:1;fill-rule:evenodd;stroke:#000000;stroke-width:1.55999994;stroke-linecap:butt;stroke-linejoin:miter;stroke-miterlimit:8;stroke-dasharray:none;stroke-opacity:1"
       d="M 17.94,41.82 H 200.46 V 7.02 H 17.94 Z" /><text
       id="text42"
       style="font-variant:normal;font-weight:normal;font-stretch:normal;font-size:18px;font-family:'Times New Roman';-inkscape-font-specification:TimesNewRomanPSMT;writing-mode:lr-tb;fill:#000000;fill-opacity:1;fill-rule:nonzero;stroke:none"
       transform="matrix(1,0,0,-1,26.7901,17.8506)"><tspan
         id="tspan40"
         y="0"
         x="0 9 14.9994 20.879999 25.434 30.474001 35.028 47.987999 56.987999 65.026802 70.066803 75.106796 80.146797 89.388 92.507401 105.4674 110.5074 115.5474 121.5468 126.5868 135.58681 144.58681 149.6268 157.6674">q[] : Quality Attributes</tspan></text>
<g
       transform="translate(189.06,91.62)"
       id="g44"><path
         id="path46"
         style="fill:none;stroke:#000000;stroke-width:1.55999994;stroke-linecap:butt;stroke-linejoin:miter;stroke-miterlimit:8;stroke-dasharray:none;stroke-opacity:1"
         d="M 0,0 248.888,-65.691" /></g><g
       transform="translate(438.2572,31.0194)"
       id="g48"><path
         id="path50"
         style="fill:#000000;fill-opacity:1;fill-rule:evenodd;stroke:none"
         d="M 0,0 8.393,-7.387 -2.552,-9.669 Z" /></g><g
       transform="translate(206.34,102.06)"
       id="g52"><path
         id="path54"
         style="fill:none;stroke:#000000;stroke-width:1.55999994;stroke-linecap:butt;stroke-linejoin:miter;stroke-miterlimit:8;stroke-dasharray:none;stroke-opacity:1"
         d="M 0,0 202.991,-5.682" /></g><g
       transform="translate(408.4712,101.4044)"
       id="g56"><path
         id="path58"
         style="fill:#000000;fill-opacity:1;fill-rule:evenodd;stroke:none"
         d="M 0,0 9.856,-5.278 -0.28,-9.996 Z" /></g><text
       id="text62"
       style="font-variant:normal;font-weight:bold;font-stretch:normal;font-size:18px;font-family:'Times New Roman';-inkscape-font-specification:TimesNewRomanPS-BoldMT;writing-mode:lr-tb;fill:#000000;fill-opacity:1;fill-rule:nonzero;stroke:none"
       transform="matrix(1,0,0,-1,583.0229,194.0668)"><tspan
         id="tspan60"
         y="0"
         x="0 12.96 21.006001 27.9648 33.004799 42.004799 51.964199 56.525398 69.483597 77.529602 85.5756 90.615601 97.574402 102.6144 111.6144 121.5738 126.0198 138.0204 143.06039 153.01981 161.0658 170.0658 178.1118">Design Decision Library</tspan></text>
<text
       id="text66"
       style="font-variant:normal;font-weight:normal;font-stretch:normal;font-size:14.03999996px;font-family:'Times New Roman';-inkscape-font-specification:TimesNewRomanPSMT;writing-mode:lr-tb;fill:#000000;fill-opacity:1;fill-rule:nonzero;stroke:none"
       transform="matrix(1,0,0,-1,222.2152,38.1587)"><tspan
         id="tspan64"
         y="0"
         x="0 7.07616 11.03544 14.40504 19.084572 23.043852 30.120012 37.196171 44.996796 51.236172 55.077515 59.036797 64.436577 69.117516 75.956398 79.91568 86.991837 93.969719 98.645042 104.8788 108.35791 111.47479 118.55376 123.22908 127.78927">1: findSatisfying(c, q[])</tspan></text>
<g
       transform="translate(466.3434,26.0326)"
       id="g68"><path
         id="path70"
         style="fill:none;stroke:#000000;stroke-width:1.55999994;stroke-linecap:butt;stroke-linejoin:miter;stroke-miterlimit:8;stroke-dasharray:none;stroke-opacity:1"
         d="M 0,0 -250.937,65.708" /></g><g
       transform="translate(215.1069,86.6496)"
       id="g72"><path
         id="path74"
         style="fill:#000000;fill-opacity:1;fill-rule:evenodd;stroke:none"
         d="M 0,0 -8.407,7.37 2.534,9.674 Z" /></g><text
       id="text80"
       style="font-variant:normal;font-weight:normal;font-stretch:normal;font-size:14.03999996px;font-family:'Times New Roman';-inkscape-font-specification:TimesNewRomanPSMT;writing-mode:lr-tb;fill:#000000;fill-opacity:1;fill-rule:nonzero;stroke:none"
       transform="matrix(1,0,0,-1,297.4001,72.1629)"><tspan
         id="tspan76"
         y="0"
         x="0 7.07616 11.03544 14.391">2: i</tspan><tspan
         id="tspan78"
         y="-31.15476"
         x="-45.321121 -38.244961 -34.285679 -30.91608 -26.9568 -19.88064 -15.92136 -11.96208 -7.2811441 -1.8813601 2.07792 9.0389519 15.99858 19.479095 22.722336 28.240055 35.316216 42.392376 47.071907 53.311283 59.552063">3: init(sink, source)</tspan></text>
<path
       id="path82"
       style="fill:#ffffff;fill-opacity:1;fill-rule:evenodd;stroke:#000000;stroke-width:1.55999994;stroke-linecap:butt;stroke-linejoin:miter;stroke-miterlimit:8;stroke-dasharray:none;stroke-opacity:1"
       d="M 18.06,186.9 H 206.34 V 155.82 H 18.06 Z" /><text
       id="text86"
       style="font-variant:normal;font-weight:normal;font-stretch:normal;font-size:18px;font-family:'Times New Roman';-inkscape-font-specification:TimesNewRomanPSMT;writing-mode:lr-tb;fill:#000000;fill-opacity:1;fill-rule:nonzero;stroke:none"
       transform="matrix(1,0,0,-1,48.0984,164.8524)"><tspan
         id="tspan84"
         y="0"
         x="0 6.9605999 12.0006 21.000601 30.000601 34.446602 39.486599 44.047798 56.053799 65.053802 78.974998 87.974998 96.974998 105.975 114.0138 123.0138">sink : Component</tspan></text>
<path
       id="path88"
       style="fill:#ffffff;fill-opacity:1;fill-rule:evenodd;stroke:#000000;stroke-width:1.55999994;stroke-linecap:butt;stroke-linejoin:miter;stroke-miterlimit:8;stroke-dasharray:none;stroke-opacity:1"
       d="M 17.94,152.22 H 206.22 V 121.26 H 17.94 Z" /><text
       id="text92"
       style="font-variant:normal;font-weight:normal;font-stretch:normal;font-size:18px;font-family:'Times New Roman';-inkscape-font-specification:TimesNewRomanPSMT;writing-mode:lr-tb;fill:#000000;fill-opacity:1;fill-rule:nonzero;stroke:none"
       transform="matrix(1,0,0,-1,39.5189,130.2112)"><tspan
         id="tspan90"
         y="0"
         x="0 6.9605999 15.9606 24.9606 30.954599 38.995201 47.034 51.48 56.52 60.966 72.972 81.972 95.893204 104.8932 113.8932 122.8932 130.93201 139.93201">source : Component</tspan></text>
<g
       transform="translate(501.42,59.2065)"
       id="g94"><path
         id="path96"
         style="fill:none;stroke:#000000;stroke-width:1.55999994;stroke-linecap:butt;stroke-linejoin:miter;stroke-miterlimit:8;stroke-dasharray:none;stroke-opacity:1"
         d="M 0,0 V 14.429" /></g><g
       transform="translate(504.9204,67.6358)"
       id="g98"><path
         id="path100"
         style="fill:none;stroke:#000000;stroke-width:1.55999994;stroke-linecap:round;stroke-linejoin:miter;stroke-miterlimit:8;stroke-dasharray:none;stroke-opacity:1"
         d="M 0,0 -3.5,6 -7,0" /></g><g
       transform="translate(676.98,59.541)"
       id="g102"><path
         id="path104"
         style="fill:none;stroke:#000000;stroke-width:1.55999994;stroke-linecap:butt;stroke-linejoin:miter;stroke-miterlimit:8;stroke-dasharray:none;stroke-opacity:1"
         d="M 0,0 V 14.095" /></g><g
       transform="translate(680.4803,67.6358)"
       id="g106"><path
         id="path108"
         style="fill:none;stroke:#000000;stroke-width:1.55999994;stroke-linecap:round;stroke-linejoin:miter;stroke-miterlimit:8;stroke-dasharray:none;stroke-opacity:1"
         d="M 0,0 -3.5,6 -7,0" /></g><path
       id="path110"
       style="fill:#ffe699;fill-opacity:1;fill-rule:evenodd;stroke:#000000;stroke-width:1.55999994;stroke-linecap:butt;stroke-linejoin:miter;stroke-miterlimit:8;stroke-dasharray:none;stroke-opacity:1"
       d="m 593.82,181.02 h 166.32 v -32.4 H 593.82 Z" /><text
       id="text114"
       style="font-variant:normal;font-weight:normal;font-stretch:normal;font-size:18px;font-family:'Times New Roman';-inkscape-font-specification:TimesNewRomanPSMT;writing-mode:lr-tb;fill:#000000;fill-opacity:1;fill-rule:nonzero;stroke:none"
       transform="matrix(1,0,0,-1,622.8062,158.2797)"><tspan
         id="tspan112"
         y="0"
         x="0 5.04 9.4860001 19.4454 24.485399 33.485401 41.526001 45.972 57.978001 66.977997 75.977997 81.017998 87.012001 95.050797 103.0914">: Pipe Contract</tspan></text>
<g
       transform="translate(676.98,136.74)"
       id="g116"><path
         id="path118"
         style="fill:none;stroke:#000000;stroke-width:1.55999994;stroke-linecap:butt;stroke-linejoin:miter;stroke-miterlimit:8;stroke-dasharray:none;stroke-opacity:1"
         d="M 0,0 V -19.486" /></g><path
       id="path120"
       style="fill:#bdd7ee;fill-opacity:1;fill-rule:evenodd;stroke:#000000;stroke-width:1.55999994;stroke-linecap:butt;stroke-linejoin:miter;stroke-miterlimit:8;stroke-dasharray:none;stroke-opacity:1"
       d="m 418.26,117.18 h 166.32 v -42 H 418.26 Z" /><text
       id="text126"
       style="font-variant:normal;font-weight:normal;font-stretch:normal;font-size:18px;font-family:'Times New Roman';-inkscape-font-specification:TimesNewRomanPSMT;writing-mode:lr-tb;fill:#000000;fill-opacity:1;fill-rule:nonzero;stroke:none"
       transform="matrix(1,0,0,-1,435.306,100.422)"><tspan
         id="tspan122"
         y="0"
         x="0 9.4860001 14.526 18.972 31.931999 39.978001 45.977402 51.017399 59.0634 64.103401 72.149399 81.149399 91.108803 96.148804 102.1482 110.1942 118.2402">i: DeflatedStream</tspan><tspan
         id="tspan124"
         y="21.6"
         x="-6.948 3.0114 8.0514002 17.051399 25.091999 31.086 45.007198 54.007198 59.047199 67.085999 81.007202 89.045998 98.045998 103.086 111.1266 116.1666 121.2066 130.2066">PipeImplementation</tspan></text>
<path
       id="path128"
       style="fill:#bdd7ee;fill-opacity:1;fill-rule:evenodd;stroke:#000000;stroke-width:1.55999994;stroke-linecap:butt;stroke-linejoin:miter;stroke-miterlimit:8;stroke-dasharray:none;stroke-opacity:1"
       d="m 769.26,117.18 h 166.32 v -42 H 769.26 Z" /><text
       id="text134"
       style="font-variant:normal;font-weight:normal;font-stretch:normal;font-size:18px;font-family:'Times New Roman';-inkscape-font-specification:TimesNewRomanPSMT;writing-mode:lr-tb;fill:#000000;fill-opacity:1;fill-rule:nonzero;stroke:none"
       transform="matrix(1,0,0,-1,790.616,100.4645)"><tspan
         id="tspan130"
         y="0"
         x="0 5.04 9.4860001 21.492001 30.492001 38.5308 46.5714 55.5714 63.612 72.612 82.571404 87.611397 93.6054 101.646 109.6866">: CheckedStream</tspan><tspan
         id="tspan132"
         y="21.6"
         x="-11.268 -1.3085999 3.7314 12.7314 20.771999 26.766001 40.687199 49.687199 54.7272 62.765999 76.687202 84.725998 93.725998 98.765999 106.8066 111.8466 116.8866 125.8866">PipeImplementation</tspan></text>
<g
       transform="translate(5.58,136.98)"
       id="g136"><path
         id="path138"
         style="fill:none;stroke:#000000;stroke-width:1.55999994;stroke-linecap:butt;stroke-linejoin:miter;stroke-miterlimit:8;stroke-dasharray:none;stroke-opacity:1"
         d="M 0,0 10.822,-0.246" /></g><g
       transform="translate(10.4835,140.3698)"
       id="g140"><path
         id="path142"
         style="fill:none;stroke:#000000;stroke-width:1.55999994;stroke-linecap:round;stroke-linejoin:miter;stroke-miterlimit:8;stroke-dasharray:none;stroke-opacity:1"
         d="M 0,0 5.919,-3.636 -0.159,-6.998" /></g><g
       transform="translate(4.62,171.54)"
       id="g144"><path
         id="path146"
         style="fill:none;stroke:#000000;stroke-width:1.55999994;stroke-linecap:butt;stroke-linejoin:miter;stroke-miterlimit:8;stroke-dasharray:none;stroke-opacity:1"
         d="M 0,0 11.855,-0.121" /></g><g
       transform="translate(10.5116,174.9804)"
       id="g148"><path
         id="path150"
         style="fill:none;stroke:#000000;stroke-width:1.55999994;stroke-linecap:round;stroke-linejoin:miter;stroke-miterlimit:8;stroke-dasharray:none;stroke-opacity:1"
         d="M 0,0 5.964,-3.561 -0.072,-7" /></g><g
       transform="translate(4.86,24.42)"
       id="g152"><path
         id="path154"
         style="fill:none;stroke:#000000;stroke-width:1.55999994;stroke-linecap:butt;stroke-linejoin:miter;stroke-miterlimit:8;stroke-dasharray:none;stroke-opacity:1"
         d="M 0,0 H 11.595" /></g><g
       transform="translate(10.4549,27.9203)"
       id="g156"><path
         id="path158"
         style="fill:none;stroke:#000000;stroke-width:1.55999994;stroke-linecap:round;stroke-linejoin:miter;stroke-miterlimit:8;stroke-dasharray:none;stroke-opacity:1"
         d="M 0,0 6,-3.5 0,-7" /></g><g
       transform="translate(5.34,171.54)"
       id="g160"><path
         id="path162"
         style="fill:none;stroke:#000000;stroke-width:1.55999994;stroke-linecap:butt;stroke-linejoin:miter;stroke-miterlimit:8;stroke-dasharray:none;stroke-opacity:1"
         d="M 0,0 0.28,-147.642" /></g><g
       transform="translate(5.7,102.06)"
       id="g164"><path
         id="path166"
         style="fill:none;stroke:#000000;stroke-width:1.55999994;stroke-linecap:butt;stroke-linejoin:miter;stroke-miterlimit:8;stroke-dasharray:none;stroke-opacity:1"
         d="M 0,0 H 12.353" /></g><g
       transform="translate(192.18,113.2253)"
       id="g168"><path
         id="path170"
         style="fill:none;stroke:#000000;stroke-width:1.55999994;stroke-linecap:butt;stroke-linejoin:miter;stroke-miterlimit:8;stroke-dasharray:none;stroke-opacity:1"
         d="M 0,0 400.063,51.398" /></g><g
       transform="translate(586.7385,160.3868)"
       id="g172"><path
         id="path174"
         style="fill:none;stroke:#000000;stroke-width:1.55999994;stroke-linecap:round;stroke-linejoin:miter;stroke-miterlimit:8;stroke-dasharray:none;stroke-opacity:1"
         d="M 0,0 5.505,4.236 -0.892,6.943" /></g><path
       id="path176"
       style="fill:#ffffff;fill-opacity:1;fill-rule:evenodd;stroke:#000000;stroke-width:1.55999994;stroke-linecap:butt;stroke-linejoin:miter;stroke-miterlimit:8;stroke-dasharray:none;stroke-opacity:1"
       d="M 18.06,117.54 H 206.34 V 86.58 H 18.06 Z" /><text
       id="text180"
       style="font-variant:normal;font-weight:normal;font-stretch:normal;font-size:18px;font-family:'Times New Roman';-inkscape-font-specification:TimesNewRomanPSMT;writing-mode:lr-tb;fill:#000000;fill-opacity:1;fill-rule:nonzero;stroke:none"
       transform="matrix(1,0,0,-1,79.7784,95.5558)"><tspan
         id="tspan178"
         y="0"
         x="0 5.04 9.4860001 21.492001 30.492001 39.492001 44.532001 50.526001 59.526001">: Control</tspan></text>
<path
       id="path182"
       style="fill:#e7e6e6;fill-opacity:1;fill-rule:evenodd;stroke:none"
       d="M 838.5,51.66 H 958.86 V 1.26 H 838.5 Z" /><g
       id="g184"><g
         clip-path="url(#clipPath190)"
         id="g186"><path
           id="path192"
           style="fill:none;stroke:#000000;stroke-width:1.55999994;stroke-linecap:butt;stroke-linejoin:miter;stroke-miterlimit:8;stroke-dasharray:none;stroke-opacity:1"
           d="M 838.5,51.66 H 958.86 V 1.26 H 838.5 Z" /></g></g><g
       transform="translate(841.98,42.2998)"
       id="g194"><path
         id="path196"
         style="fill:none;stroke:#000000;stroke-width:1.55999994;stroke-linecap:butt;stroke-linejoin:miter;stroke-miterlimit:8;stroke-dasharray:none;stroke-opacity:1"
         d="M 0,0 H 19.8" /></g><g
       transform="translate(860.7802,37.2995)"
       id="g198"><path
         id="path200"
         style="fill:#000000;fill-opacity:1;fill-rule:evenodd;stroke:none"
         d="M 0,0 10,5.001 0,10 Z" /></g><g
       transform="translate(841.98,26.58)"
       id="g202"><path
         id="path204"
         style="fill:none;stroke:#000000;stroke-width:1.55999994;stroke-linecap:butt;stroke-linejoin:miter;stroke-miterlimit:8;stroke-dasharray:none;stroke-opacity:1"
         d="M 0,0 27.256,-0.081" /></g><g
       transform="translate(863.2462,30.0169)"
       id="g206"><path
         id="path208"
         style="fill:none;stroke:#000000;stroke-width:1.55999994;stroke-linecap:round;stroke-linejoin:miter;stroke-miterlimit:8;stroke-dasharray:none;stroke-opacity:1"
         d="M 0,0 5.989,-3.518 -0.021,-7" /></g><g
       transform="translate(859.4569,12.06)"
       id="g210"><path
         id="path212"
         style="fill:none;stroke:#000000;stroke-width:1.55999994;stroke-linecap:butt;stroke-linejoin:miter;stroke-miterlimit:8;stroke-dasharray:none;stroke-opacity:1"
         d="M 0,0 -17.477,-0.246" /></g><g
       transform="translate(859.5,18.18)"
       id="g214"><path
         id="path216"
         style="fill:#ffffff;fill-opacity:1;fill-rule:evenodd;stroke:none"
         d="M 0,0 10.44,-6.12 0,-12.24 Z" /></g><g
       transform="translate(859.5,18.18)"
       id="g218"><path
         id="path220"
         style="fill:none;stroke:#000000;stroke-width:1.55999994;stroke-linecap:butt;stroke-linejoin:miter;stroke-miterlimit:8;stroke-dasharray:none;stroke-opacity:1"
         d="M 0,0 10.44,-6.12 0,-12.24 Z" /></g><text
       id="text228"
       style="font-variant:normal;font-weight:normal;font-stretch:normal;font-size:14.03999996px;font-family:'Times New Roman';-inkscape-font-specification:TimesNewRomanPSMT;writing-mode:lr-tb;fill:#000000;fill-opacity:1;fill-rule:nonzero;stroke:none"
       transform="matrix(1,0,0,-1,872.5242,37.3138)"><tspan
         id="tspan222"
         y="0"
         x="0 12.480156 18.719532 24.237251 29.754972 35.994347 43.070507">Message</tspan><tspan
         id="tspan224"
         y="14.96664"
         x="-0.18252 9.8967962 16.137575 23.216543 29.457323 36.536293 43.616665 49.856041 56.936413 63.177193">Dependency</tspan><tspan
         id="tspan226"
         y="30.368521"
         x="0.36504 10.444356 16.685137 23.765509 30.004885 34.684418 40.923794 44.884476 48.843758 55.084538 61.323914 65.283195 69.243874 76.203506">Generalization</tspan></text>
<g
       transform="translate(501.42,117.1727)"
       id="g230"><path
         id="path232"
         style="fill:none;stroke:#000000;stroke-width:1.55999994;stroke-linecap:butt;stroke-linejoin:miter;stroke-miterlimit:8;stroke-dasharray:none;stroke-opacity:1"
         d="m 0,0 v 10.659 h 175.5 v 8.908" /></g><g
       transform="translate(852.47,117.2152)"
       id="g234"><path
         id="path236"
         style="fill:none;stroke:#000000;stroke-width:1.55999994;stroke-linecap:butt;stroke-linejoin:miter;stroke-miterlimit:8;stroke-dasharray:none;stroke-opacity:1"
         d="m 0,0 v 10.512 h -175.49 v 9.013" /></g><g
       transform="translate(853.14,58.7386)"
       id="g238"><path
         id="path240"
         style="fill:none;stroke:#000000;stroke-width:1.55999994;stroke-linecap:butt;stroke-linejoin:miter;stroke-miterlimit:8;stroke-dasharray:none;stroke-opacity:1"
         d="M 0,0 -352.08,0.961" /></g><path
       id="path242"
       style="fill:#f8cbad;fill-opacity:1;fill-rule:evenodd;stroke:#000000;stroke-width:1.55999994;stroke-linecap:butt;stroke-linejoin:miter;stroke-miterlimit:8;stroke-dasharray:none;stroke-opacity:1"
       d="M 17.94,83.22 H 206.22 V 52.26 H 17.94 Z" /><text
       id="text246"
       style="font-variant:normal;font-weight:normal;font-stretch:normal;font-size:18px;font-family:'Times New Roman';-inkscape-font-specification:TimesNewRomanPSMT;writing-mode:lr-tb;fill:#000000;fill-opacity:1;fill-rule:nonzero;stroke:none"
       transform="matrix(1,0,0,-1,28.2228,61.1896)"><tspan
         id="tspan244"
         y="0"
         x="0 8.0405998 12.4866 17.5266 21.006001 33.966 42.966 51.966 57.006001 62.046001 70.086601 78.125397 83.165398 88.205399 97.205399 106.2054 110.5254 122.5314 131.5314 140.5314 145.5714 153.612 162.612">c : Application Context</tspan></text>
<g
       transform="translate(5.58,67.98)"
       id="g248"><path
         id="path250"
         style="fill:none;stroke:#000000;stroke-width:1.55999994;stroke-linecap:butt;stroke-linejoin:miter;stroke-miterlimit:8;stroke-dasharray:none;stroke-opacity:1"
         d="M 0,0 10.809,-0.189" /></g><g
       transform="translate(10.4507,71.3958)"
       id="g252"><path
         id="path254"
         style="fill:none;stroke:#000000;stroke-width:1.55999994;stroke-linecap:round;stroke-linejoin:miter;stroke-miterlimit:8;stroke-dasharray:none;stroke-opacity:1"
         d="M 0,0 5.938,-3.605 -0.123,-6.999" /></g><path
       id="path256"
       style="fill:#f8cbad;fill-opacity:1;fill-rule:evenodd;stroke:#000000;stroke-width:1.55999994;stroke-linecap:butt;stroke-linejoin:miter;stroke-miterlimit:8;stroke-dasharray:none;stroke-opacity:1"
       d="M 446.7,39.78 H 732.3 V 4.86 H 446.7 Z" /><text
       id="text260"
       style="font-variant:normal;font-weight:normal;font-stretch:normal;font-size:18px;font-family:'Times New Roman';-inkscape-font-specification:TimesNewRomanPSMT;writing-mode:lr-tb;fill:#000000;fill-opacity:1;fill-rule:nonzero;stroke:none"
       transform="matrix(1,0,0,-1,469.6398,15.7929)"><tspan
         id="tspan258"
         y="0"
         x="0 5.04 9.5939999 15.588 29.509199 38.509201 43.549198 51.588001 65.509201 73.547997 82.547997 87.587997 95.628601 100.6686 105.7086 114.7086 123.7086 128.02859 137.98801 146.02859 151.0686 159.10921 167.14799 172.188 181.188 187.18201 191.502 201.70081 211.662 216.702 225.702 233.7408">: Implementation Selector &lt;Pipe&gt;</tspan></text>
<path
       id="path262"
       style="fill:#bdd7ee;fill-opacity:1;fill-rule:evenodd;stroke:#000000;stroke-width:1.55999994;stroke-linecap:butt;stroke-linejoin:miter;stroke-miterlimit:8;stroke-dasharray:none;stroke-opacity:1"
       d="M 593.82,117.3 H 760.14 V 75.18 H 593.82 Z" /><text
       id="text268"
       style="font-variant:normal;font-weight:normal;font-stretch:normal;font-size:18px;font-family:'Times New Roman';-inkscape-font-specification:TimesNewRomanPSMT;writing-mode:lr-tb;fill:#000000;fill-opacity:1;fill-rule:nonzero;stroke:none"
       transform="matrix(1,0,0,-1,622.086,100.5037)"><tspan
         id="tspan264"
         y="0"
         x="0 5.04 9.4860001 21.492001 26.532 35.532001 44.532001 52.570801 58.5648 68.5242 73.564201 79.558197 87.598801 95.639397">: CipherStream</tspan><tspan
         id="tspan266"
         y="21.6"
         x="-18.233999 -8.2746 -3.2346001 5.7653999 13.806 19.799999 33.721199 42.721199 47.7612 55.799999 69.721199 77.760002 86.760002 91.800003 99.840599 104.8806 109.9206 118.9206">PipeImplementation</tspan></text>
<g
       transform="translate(589.5,59.7)"
       id="g270"><path
         id="path272"
         style="fill:none;stroke:#000000;stroke-width:1.55999994;stroke-linecap:butt;stroke-linejoin:miter;stroke-miterlimit:8;stroke-dasharray:none;stroke-opacity:1"
         d="M 0,0 V -19.985" /></g><g
       transform="translate(670.62,136.74)"
       id="g274"><path
         id="path276"
         style="fill:#ffffff;fill-opacity:1;fill-rule:evenodd;stroke:none"
         d="M 0,0 6.36,10.08 12.72,0 Z" /></g><g
       transform="translate(670.62,136.74)"
       id="g278"><path
         id="path280"
         style="fill:none;stroke:#000000;stroke-width:1.55999994;stroke-linecap:butt;stroke-linejoin:miter;stroke-miterlimit:8;stroke-dasharray:none;stroke-opacity:1"
         d="M 0,0 6.36,10.08 12.72,0 Z" /></g><g
       transform="translate(852.42,58.3637)"
       id="g282"><path
         id="path284"
         style="fill:none;stroke:#000000;stroke-width:1.55999994;stroke-linecap:butt;stroke-linejoin:miter;stroke-miterlimit:8;stroke-dasharray:none;stroke-opacity:1"
         d="M 0,0 0.009,15.272" /></g><g
       transform="translate(855.9259,67.6337)"
       id="g286"><path
         id="path288"
         style="fill:none;stroke:#000000;stroke-width:1.55999994;stroke-linecap:round;stroke-linejoin:miter;stroke-miterlimit:8;stroke-dasharray:none;stroke-opacity:1"
         d="M 0,0 -3.497,6.002 -7,0.004" /></g><g
       id="g290"><g
         clip-path="url(#clipPath296)"
         id="g292"><g
           transform="translate(198.36,23.94)"
           id="g298"><path
             id="path300"
             style="fill:#c5e0b4;fill-opacity:1;fill-rule:evenodd;stroke:none"
             d="M 0,0 C 0,1.16 0.94,2.1 2.1,2.1 3.26,2.1 4.2,1.16 4.2,0 4.2,-1.16 3.26,-2.1 2.1,-2.1 0.94,-2.1 0,-1.16 0,0" /></g><g
           transform="translate(198.36,23.94)"
           id="g302"><path
             id="path304"
             style="fill:none;stroke:#000000;stroke-width:0.95999998;stroke-linecap:butt;stroke-linejoin:miter;stroke-miterlimit:8;stroke-dasharray:none;stroke-opacity:1"
             d="M 0,0 C 0,1.16 0.94,2.1 2.1,2.1 3.26,2.1 4.2,1.16 4.2,0 4.2,-1.16 3.26,-2.1 2.1,-2.1 0.94,-2.1 0,-1.16 0,0 Z" /></g></g></g><g
       id="g306"><g
         clip-path="url(#clipPath312)"
         id="g308"><g
           transform="translate(204.12,67.8)"
           id="g314"><path
             id="path316"
             style="fill:#f8cbad;fill-opacity:1;fill-rule:evenodd;stroke:none"
             d="M 0,0 C 0,1.193 0.967,2.16 2.16,2.16 3.353,2.16 4.32,1.193 4.32,0 4.32,-1.193 3.353,-2.16 2.16,-2.16 0.967,-2.16 0,-1.193 0,0" /></g><g
           transform="translate(204.12,67.8)"
           id="g318"><path
             id="path320"
             style="fill:none;stroke:#000000;stroke-width:0.95999998;stroke-linecap:butt;stroke-linejoin:miter;stroke-miterlimit:8;stroke-dasharray:none;stroke-opacity:1"
             d="M 0,0 C 0,1.193 0.967,2.16 2.16,2.16 3.353,2.16 4.32,1.193 4.32,0 4.32,-1.193 3.353,-2.16 2.16,-2.16 0.967,-2.16 0,-1.193 0,0 Z" /></g></g></g></g></svg>