<svg xmlns="http://www.w3.org/2000/svg" viewBox="50 -20 700 665" class="se-gym-hero-svg se-gym-hero-svg-mobile hero-variant-v10" data-gym-hero-svg="" aria-hidden="true" focusable="false" preserveAspectRatio="xMidYMid meet">
  <title>Aqua Captain</title>
  <defs>
    <linearGradient id="suit-mobile-v10" x1="0" y1="0" x2="0" y2="1"><stop offset="0" stop-color="#38c2e6"/><stop offset=".55" stop-color="#167ca9"/><stop offset="1" stop-color="#0c4b70"/></linearGradient>
    <linearGradient id="cape-grad-mobile-v10" x1="0" y1="0" x2="0" y2="1"><stop offset="0" stop-color="#5fcfa5"/><stop offset=".55" stop-color="#207b75"/><stop offset="1" stop-color="#0d3c45"/></linearGradient>
    <linearGradient id="cape-inner-mobile-v10" x1="0" y1="0" x2="0" y2="1"><stop offset="0" stop-color="#ffef8b"/><stop offset="1" stop-color="#9b7b24"/></linearGradient>
    <linearGradient id="gold-mobile-v10" x1="0" y1="0" x2="0" y2="1"><stop offset="0" stop-color="#ffef8b"/><stop offset=".5" stop-color="#ffd34d"/><stop offset="1" stop-color="#9b7b24"/></linearGradient>
    <radialGradient id="gold-radial-mobile-v10" cx=".38" cy=".32" r=".95"><stop offset="0" stop-color="#fff7c4"/><stop offset=".5" stop-color="#ffd34d"/><stop offset="1" stop-color="#746018"/></radialGradient>
    <linearGradient id="skin-mobile-v10" x1="0" y1="0" x2="0" y2="1"><stop offset="0" stop-color="#b9825d"/><stop offset="1" stop-color="#7f5038"/></linearGradient>
    <linearGradient id="steel-mobile-v10" x1="0" y1="0" x2="0" y2="1"><stop offset="0" stop-color="#7e8895"/><stop offset=".35" stop-color="#e6ebf1"/><stop offset=".55" stop-color="#c0c8d2"/><stop offset="1" stop-color="#42495a"/></linearGradient>
    <linearGradient id="steel-dark-mobile-v10" x1="0" y1="0" x2="0" y2="1"><stop offset="0" stop-color="#5b6470"/><stop offset=".5" stop-color="#aab3be"/><stop offset="1" stop-color="#2a323d"/></linearGradient>
    <radialGradient id="plate-face-mobile-v10" cx=".4" cy=".32" r=".95"><stop offset="0" stop-color="#38c2e6"/><stop offset=".55" stop-color="#167ca9"/><stop offset="1" stop-color="#10243d"/></radialGradient>
    <radialGradient id="plate-face-dark-mobile-v10" cx=".4" cy=".32" r=".95"><stop offset="0" stop-color="#167ca9"/><stop offset=".55" stop-color="#0e4a87"/><stop offset="1" stop-color="#07111f"/></radialGradient>
    <radialGradient id="brain-glow-mobile-v10" cx=".5" cy=".5" r=".5"><stop offset="0" stop-color="#ffef8b" stop-opacity=".55"/><stop offset=".55" stop-color="#ffd34d" stop-opacity=".18"/><stop offset="1" stop-color="#ffd34d" stop-opacity="0"/></radialGradient>
    <pattern id="knurl-mobile-v10" patternUnits="userSpaceOnUse" width="3" height="3" patternTransform="rotate(45)"><rect width="3" height="3" fill="#aab3be"/><line x1="0" y1="0" x2="0" y2="3" stroke="#5b6470" stroke-width=".6"/></pattern>
  </defs>
  <g><animateTransform attributeName="transform" type="rotate" values="-1.6 400 268;2 400 268;-1.6 400 268" keyTimes="0;0.5;1" dur="1.7s" begin="0s" repeatCount="indefinite" additive="sum" calcMode="spline" keySplines="0.4 0 0.6 1;0.4 0 0.6 1"/>
    <path d="M 335 258 C 318 290, 308 360, 308 440 C 308 490, 312 525, 318 555 Q 332 545, 346 555 Q 360 545, 374 555 Q 388 545, 400 555 Q 412 545, 426 555 Q 440 545, 454 555 Q 468 545, 482 555 C 488 525, 492 490, 492 440 C 492 360, 482 290, 465 258 Z" fill="url(#cape-grad-mobile-v10)"/>
    <path d="M 338 260 C 326 300, 320 380, 320 470 C 320 510, 324 540, 328 558 L 332 553 C 328 540, 326 510, 326 470 C 326 380, 332 300, 343 262 Z" fill="url(#cape-inner-mobile-v10)" opacity=".9"/>
    <path d="M 462 260 C 474 300, 480 380, 480 470 C 480 510, 476 540, 472 558 L 468 553 C 472 540, 474 510, 474 470 C 474 380, 468 300, 457 262 Z" fill="url(#cape-inner-mobile-v10)" opacity=".9"/>
    <path d="M 318 555 Q 332 545, 346 555 Q 360 545, 374 555 Q 388 545, 400 555 Q 412 545, 426 555 Q 440 545, 454 555 Q 468 545, 482 555 L 480 563 Q 468 553, 454 563 Q 440 553, 426 563 Q 412 553, 400 563 Q 388 553, 374 563 Q 360 553, 346 563 Q 332 553, 320 563 Z" fill="url(#cape-inner-mobile-v10)" opacity=".8"/>
    <path d="M 332 320 C 322 400, 320 490, 328 545" stroke="#07111f" stroke-width="2.5" fill="none" opacity=".35"/>
    <path d="M 468 320 C 478 400, 480 490, 472 545" stroke="#07111f" stroke-width="2.5" fill="none" opacity=".35"/>
    <path d="M 370 295 C 364 380, 366 470, 372 540" stroke="#07111f" stroke-width="1.5" fill="none" opacity=".2"/>
    <path d="M 430 295 C 436 380, 434 470, 428 540" stroke="#07111f" stroke-width="1.5" fill="none" opacity=".2"/>
    <circle cx="342" cy="272" r="11" fill="url(#gold-radial-mobile-v10)" stroke="#4a3a10" stroke-width="1.4"/>
    <circle cx="342" cy="272" r="4" fill="#4a3a10"/>
    <circle cx="458" cy="272" r="11" fill="url(#gold-radial-mobile-v10)" stroke="#4a3a10" stroke-width="1.4"/>
    <circle cx="458" cy="272" r="4" fill="#4a3a10"/>
  </g>
  <g><animateTransform attributeName="transform" type="translate" values="0 -1;0 4;0 -1" keyTimes="0;0.5;1" dur="2.2s" begin="0s" repeatCount="indefinite" additive="sum" calcMode="spline" keySplines="0.4 0 0.6 1;0.4 0 0.6 1"/>
    <path d="M 358 440 L 348 555 L 374 558 L 380 440 Z" fill="#183b5c"/>
    <path d="M 442 440 L 452 555 L 426 558 L 420 440 Z" fill="#183b5c"/>
    <path d="M 360 432 C 358 478, 358 518, 356 560 L 384 562 C 386 518, 386 478, 388 432 Z" fill="url(#suit-mobile-v10)"/>
    <path d="M 440 432 C 442 478, 442 518, 444 560 L 416 562 C 414 518, 414 478, 412 432 Z" fill="url(#suit-mobile-v10)"/>
    <path d="M 384 440 L 386 555" stroke="#183b5c" stroke-width="2" opacity=".6"/>
    <path d="M 416 440 L 414 555" stroke="#183b5c" stroke-width="2" opacity=".6"/>
    <ellipse cx="372" cy="508" rx="5.5" ry="14" fill="#7FB6F0" opacity=".4"/>
    <ellipse cx="428" cy="508" rx="5.5" ry="14" fill="#7FB6F0" opacity=".4"/>
    <g>
      <path d="M 348 552 L 392 552 L 392 615 Q 392 624, 378 626 L 346 628 Q 336 626, 336 618 L 340 580 Q 340 564, 348 552 Z" fill="url(#gold-mobile-v10)" stroke="#4a3a10" stroke-width="2" stroke-linejoin="round"/>
      <path d="M 346 558 L 390 558" stroke="#fff6c0" stroke-width="2" opacity=".8"/>
      <path d="M 342 593 L 392 595" stroke="#4a3a10" stroke-width="1.5" opacity=".6"/>
      <path d="M 336 618 Q 360 632, 388 624 L 392 624 Q 360 638, 334 626 Z" fill="#4a3a10" opacity=".55"/>
      <ellipse cx="368" cy="620" rx="14" ry="3" fill="#fff6c0" opacity=".45"/>
      <path d="M 452 552 L 408 552 L 408 615 Q 408 624, 422 626 L 454 628 Q 464 626, 464 618 L 460 580 Q 460 564, 452 552 Z" fill="url(#gold-mobile-v10)" stroke="#4a3a10" stroke-width="2" stroke-linejoin="round"/>
      <path d="M 410 558 L 454 558" stroke="#fff6c0" stroke-width="2" opacity=".8"/>
      <path d="M 408 593 L 458 595" stroke="#4a3a10" stroke-width="1.5" opacity=".6"/>
      <path d="M 464 618 Q 440 632, 412 624 L 408 624 Q 440 638, 466 626 Z" fill="#4a3a10" opacity=".55"/>
      <ellipse cx="432" cy="620" rx="14" ry="3" fill="#fff6c0" opacity=".45"/>
    </g>
    <path d="M 312 264 C 304 318, 302 380, 318 430 L 482 430 C 498 380, 496 318, 488 264 Z" fill="#183b5c"/>
    <path d="M 322 266 C 314 318, 312 378, 332 425 L 364 438 L 384 442 L 400 444 L 416 442 L 436 438 L 468 425 C 488 378, 486 318, 478 266 C 462 254, 440 248, 400 246 C 360 248, 338 254, 322 266 Z" fill="url(#suit-mobile-v10)"/>
    <path d="M 345 270 C 340 304, 342 350, 354 396 L 384 402 C 380 350, 380 308, 376 270 Z" fill="#38c2e6" opacity=".5"/>
    <path d="M 455 270 C 460 304, 458 350, 446 396 L 416 402 C 420 350, 420 308, 424 270 Z" fill="#38c2e6" opacity=".5"/>
    <path d="M 358 296 Q 400 314, 442 296" stroke="#183b5c" stroke-width="2.5" fill="none" opacity=".5"/>
    <path d="M 400 322 L 400 430" stroke="#183b5c" stroke-width="1.6" opacity=".4"/>
    <path d="M 372 360 Q 400 366, 428 360" stroke="#183b5c" stroke-width="1.4" fill="none" opacity=".4"/>
    <path d="M 372 388 Q 400 394, 428 388" stroke="#183b5c" stroke-width="1.4" fill="none" opacity=".4"/>
    <path d="M 322 410 L 478 410 L 472 432 L 328 432 Z" fill="url(#gold-mobile-v10)" stroke="#4a3a10" stroke-width="1.6" stroke-linejoin="round"/>
    <path d="M 324 414 L 476 414" stroke="#fff6c0" stroke-width="2" opacity=".8"/>
    <path d="M 328 428 L 472 428" stroke="#4a3a10" stroke-width="1.5" opacity=".6"/>
    <path d="M 385 405 L 415 405 Q 422 405, 422 412 L 422 428 Q 422 436, 415 436 L 385 436 Q 378 436, 378 428 L 378 412 Q 378 405, 385 405 Z" fill="#10243d" stroke="url(#gold-mobile-v10)" stroke-width="2.5"/>
    <path d="M 391 415 L 400 424 L 409 415" stroke="#ffd34d" stroke-width="2.6" fill="none" stroke-linecap="round" stroke-linejoin="round"/>
    <g transform="translate(400 332)">
      <ellipse cx="0" cy="0" rx="58" ry="60" fill="url(#brain-glow-mobile-v10)"><animate attributeName="opacity" values="0.85;0.35;0.85" keyTimes="0;0.5;1" dur="2.2s" repeatCount="indefinite"/></ellipse>
      <path d="M -40 -30 Q -40 -38, -32 -38 L 32 -38 Q 40 -38, 40 -30 L 40 6 Q 40 26, 22 40 Q 8 52, 0 52 Q -8 52, -22 40 Q -40 26, -40 6 Z" fill="url(#gold-radial-mobile-v10)" stroke="#4a3a10" stroke-width="2.5" stroke-linejoin="round"/>
      <path d="M -33 -23 Q -33 -30, -26 -30 L 26 -30 Q 33 -30, 33 -23 L 33 4 Q 33 20, 20 32 Q 8 42, 0 42 Q -8 42, -20 32 Q -33 20, -33 4 Z" fill="none" stroke="#10243d" stroke-width="1.5"/>
      <text x="0" y="10" text-anchor="middle" font-family="'Fraunces', Georgia, serif" font-weight="800" font-size="34" fill="#10243d" stroke="#ffef8b" stroke-width="2" paint-order="stroke fill" letter-spacing="-1">SE</text>
      <path d="M 26 -32 L 19 -22 L 24 -22 L 18 -10 L 26 -22 L 21 -22 Z" fill="#10243d" opacity=".85"/>
    </g>
    <ellipse cx="322" cy="278" rx="22" ry="28" fill="url(#suit-mobile-v10)"/>
    <ellipse cx="478" cy="278" rx="22" ry="28" fill="url(#suit-mobile-v10)"/>
    <ellipse cx="316" cy="266" rx="7" ry="14" fill="#38c2e6" opacity=".55"/>
    <ellipse cx="484" cy="266" rx="7" ry="14" fill="#38c2e6" opacity=".55"/>
    <path d="M 386 232 L 414 232 L 414 264 L 386 264 Z" fill="url(#skin-mobile-v10)"/>
    <path d="M 388 258 L 412 258" stroke="#533322" stroke-width="2" opacity=".4"/>
    <path d="M 388 264 Q 400 268, 412 264" stroke="#183b5c" stroke-width="2" fill="none" opacity=".55"/>
    <g><animateTransform attributeName="transform" type="translate" values="0 -1;0 2;0 -1" keyTimes="0;0.5;1" dur="2.2s" begin="0s" repeatCount="indefinite" additive="sum" calcMode="spline" keySplines="0.4 0 0.6 1;0.4 0 0.6 1"/>
      <ellipse cx="352" cy="198" rx="7" ry="10" fill="url(#skin-mobile-v10)" stroke="#533322" stroke-width="1"/>
      <ellipse cx="448" cy="198" rx="7" ry="10" fill="url(#skin-mobile-v10)" stroke="#533322" stroke-width="1"/>
      <path d="M 357 180 C 357 144, 372 128, 400 126 C 428 128, 443 144, 443 180 C 443 214, 428 238, 400 240 C 372 238, 357 214, 357 180 Z" fill="url(#skin-mobile-v10)"/>
      <path d="M 365 218 Q 400 240, 435 218 Q 423 232, 400 236 Q 377 232, 365 218 Z" fill="#533322" opacity=".18"/>
      <path d="M 355 178 C 348 144, 366 116, 400 114 C 434 116, 452 144, 445 178 C 444 164, 438 152, 428 146 C 416 138, 404 136, 396 138 C 388 140, 378 144, 372 152 C 364 158, 358 168, 355 178 Z" fill="#121923"/>
      <path d="M 390 120 C 408 114, 426 122, 432 134 C 420 126, 404 128, 392 132 Z" fill="#36445a" opacity=".7"/>
      <path d="M 388 144 Q 400 138, 414 146 Q 406 148, 400 148 Q 394 148, 388 144 Z" fill="#121923"/>
      <path d="M 372 168 Q 384 163, 394 169" stroke="#121923" stroke-width="4" stroke-linecap="round" fill="none"/>
      <path d="M 406 169 Q 416 163, 428 168" stroke="#121923" stroke-width="4" stroke-linecap="round" fill="none"/>
      <ellipse cx="381" cy="185" rx="7" ry="8.5" fill="#ffffff"/>
      <ellipse cx="419" cy="185" rx="7" ry="8.5" fill="#ffffff"/>
      <circle cx="382" cy="187" r="4.4" fill="#121923"/>
      <circle cx="382" cy="187" r="2.2" fill="#000"/>
      <circle cx="383.6" cy="184.6" r="1.6" fill="#ffffff"/>
      <circle cx="418" cy="187" r="4.4" fill="#121923"/>
      <circle cx="418" cy="187" r="2.2" fill="#000"/>
      <circle cx="419.6" cy="184.6" r="1.6" fill="#ffffff"/>
      <path d="M 398 196 Q 395 210, 400 214 L 404 214 Q 406 210, 402 196 Z" fill="#533322" opacity=".35"/>
      <ellipse cx="371" cy="210" rx="9" ry="5" fill="#cc7465" opacity=".35"/>
      <ellipse cx="429" cy="210" rx="9" ry="5" fill="#cc7465" opacity=".35"/>
      <path d="M 380 222 Q 400 234, 420 222 Q 412 232, 400 234 Q 388 232, 380 222 Z" fill="#5a2418"/>
      <path d="M 386 224 Q 400 230, 414 224" stroke="#ffffff" stroke-width="2.5" fill="none" stroke-linecap="round"/>
      <path d="M 380 222 Q 400 234, 420 222" stroke="#3a1408" stroke-width="2" fill="none" stroke-linecap="round"/>

  <g id="variant-accessories-v10" data-hero-variant="Aqua Captain">
    <path d="M 356 169 C 361 137, 378 119, 400 118 C 423 119, 439 137, 444 169 C 432 155, 417 148, 400 148 C 383 148, 368 155, 356 169 Z" fill="#121923"/>
    <path d="M 362 151 L 438 151 L 431 135 L 369 135 Z" fill="#ffef8b" stroke="#4a3a10" stroke-width="2" stroke-linejoin="round"/>
    <circle cx="400" cy="143" r="8" fill="#167ca9" stroke="#4a3a10" stroke-width="1.5"/>
    <path d="M 370 214 C 384 206, 392 206, 400 214 C 408 206, 416 206, 430 214" fill="none" stroke="#533322" stroke-width="3" stroke-linecap="round" opacity=".55"/>
    <path d="M 400 319 L 388 344 L 400 334 L 412 344 Z" fill="#ffef8b" stroke="#4a3a10" stroke-width="1.5"/>
  </g>
    </g>
  </g>
  <g><animateTransform attributeName="transform" type="translate" values="0 -12;0 12;0 -12" keyTimes="0;0.5;1" dur="2.2s" begin="0s" repeatCount="indefinite" additive="sum" calcMode="spline" keySplines="0.4 0 0.6 1;0.4 0 0.6 1"/>
    <path d="M 322 268 C 318 210, 314 150, 312 90" stroke="url(#suit-mobile-v10)" stroke-width="38" fill="none" stroke-linecap="round"/>
    <path d="M 314 264 C 310 210, 306 150, 304 92" stroke="#5aa3df" stroke-width="6" fill="none" stroke-linecap="round" opacity=".5"/>
    <path d="M 330 264 C 326 210, 322 150, 320 92" stroke="#183b5c" stroke-width="7" fill="none" stroke-linecap="round" opacity=".4"/>
    <path d="M 478 268 C 482 210, 486 150, 488 90" stroke="url(#suit-mobile-v10)" stroke-width="38" fill="none" stroke-linecap="round"/>
    <path d="M 486 264 C 490 210, 494 150, 496 92" stroke="#5aa3df" stroke-width="6" fill="none" stroke-linecap="round" opacity=".5"/>
    <path d="M 470 264 C 474 210, 478 150, 480 92" stroke="#183b5c" stroke-width="7" fill="none" stroke-linecap="round" opacity=".4"/>
    <rect x="292" y="92" width="34" height="18" rx="6" fill="url(#gold-mobile-v10)" stroke="#4a3a10" stroke-width="1.6"/>
    <rect x="292" y="94" width="34" height="3.5" fill="#fff6c0" opacity=".8"/>
    <rect x="474" y="92" width="34" height="18" rx="6" fill="url(#gold-mobile-v10)" stroke="#4a3a10" stroke-width="1.6"/>
    <rect x="474" y="94" width="34" height="3.5" fill="#fff6c0" opacity=".8"/>
    <g>
      <rect x="270" y="77" width="260" height="16" rx="2" fill="url(#steel-mobile-v10)"/>
      <rect x="318" y="78" width="164" height="14" rx="1" fill="url(#knurl-mobile-v10)" opacity=".85"/>
      <rect x="270" y="79" width="260" height="2" fill="#ffffff" opacity=".6"/>
      <rect x="270" y="90" width="260" height="1.5" fill="#000" opacity=".25"/>
      <rect x="262" y="69" width="14" height="32" rx="2" fill="url(#steel-dark-mobile-v10)" stroke="#2a323d" stroke-width=".8"/>
      <line x1="265" y1="72" x2="265" y2="97" stroke="#fff" stroke-width=".8" opacity=".7"/>
      <line x1="273" y1="72" x2="273" y2="97" stroke="#fff" stroke-width=".8" opacity=".7"/>
      <rect x="524" y="69" width="14" height="32" rx="2" fill="url(#steel-dark-mobile-v10)" stroke="#2a323d" stroke-width=".8"/>
      <line x1="527" y1="72" x2="527" y2="97" stroke="#fff" stroke-width=".8" opacity=".7"/>
      <line x1="535" y1="72" x2="535" y2="97" stroke="#fff" stroke-width=".8" opacity=".7"/>
      <rect x="110" y="74" width="156" height="24" rx="3" fill="url(#steel-mobile-v10)"/>
      <rect x="110" y="76" width="156" height="3" fill="#fff" opacity=".55"/>
      <rect x="110" y="94" width="156" height="2" fill="#000" opacity=".25"/>
      <rect x="534" y="74" width="156" height="24" rx="3" fill="url(#steel-mobile-v10)"/>
      <rect x="534" y="76" width="156" height="3" fill="#fff" opacity=".55"/>
      <rect x="534" y="94" width="156" height="2" fill="#000" opacity=".25"/>
      <rect x="100" y="68" width="14" height="34" rx="3" fill="url(#steel-dark-mobile-v10)" stroke="#2a323d" stroke-width="1"/>
      <circle cx="107" cy="85" r="3" fill="#3a4250"/>
      <rect x="686" y="68" width="14" height="34" rx="3" fill="url(#steel-dark-mobile-v10)" stroke="#2a323d" stroke-width="1"/>
      <circle cx="693" cy="85" r="3" fill="#3a4250"/>
      <g transform="translate(235 85)"><circle r="56" fill="#07111f" opacity=".45"/><circle r="54" fill="url(#gold-radial-mobile-v10)"/><circle r="54" fill="none" stroke="#4a3a10" stroke-width="1.5"/><circle r="46" fill="url(#plate-face-dark-mobile-v10)"/><circle r="46" fill="none" stroke="#07111f" stroke-width="1.5"/><ellipse cx="0" cy="-32" rx="5" ry="7" fill="#07111f" opacity=".7"/><ellipse cx="32" cy="0" rx="7" ry="5" fill="#07111f" opacity=".7"/><ellipse cx="0" cy="32" rx="5" ry="7" fill="#07111f" opacity=".7"/><ellipse cx="-32" cy="0" rx="7" ry="5" fill="#07111f" opacity=".7"/><circle r="5" fill="#0a1018"/></g>
      <g transform="translate(160 85)"><circle r="86" fill="#07111f" opacity=".5"/><circle r="82" fill="url(#gold-radial-mobile-v10)"/><circle r="82" fill="none" stroke="#4a3a10" stroke-width="2"/><circle r="74" fill="none" stroke="#fff6c0" stroke-width="1.4" opacity=".75"/><circle r="69" fill="none" stroke="#4a3a10" stroke-width="1.2" opacity=".5"/><circle r="66" fill="url(#plate-face-mobile-v10)"/><circle r="66" fill="none" stroke="#07111f" stroke-width="2.5"/><circle r="56" fill="none" stroke="#ffd34d" stroke-width="1.2" opacity=".4"/><ellipse cx="0" cy="-50" rx="5" ry="8" fill="#07111f" opacity=".55"/><ellipse cx="50" cy="0" rx="8" ry="5" fill="#07111f" opacity=".55"/><ellipse cx="0" cy="50" rx="5" ry="8" fill="#07111f" opacity=".55"/><ellipse cx="-50" cy="0" rx="8" ry="5" fill="#07111f" opacity=".55"/><path d="M -50,-52 Q -10,-66 38,-50" stroke="#ffffff" stroke-width="3.5" fill="none" opacity=".4" stroke-linecap="round"/><path d="M -42,-44 Q -5,-55 32,-44" stroke="#ffffff" stroke-width="1.5" fill="none" opacity=".25" stroke-linecap="round"/><g opacity="1"><g fill="none" stroke="#FFFFFF" stroke-width="9" stroke-linecap="round" stroke-linejoin="round"><polyline points="-18,-22 -40,0 -18,22"/><polyline points="18,-22 40,0 18,22"/><line x1="11" y1="-30" x2="-11" y2="30"/></g><animate attributeName="opacity" values="1;1;0;0;1" keyTimes="0;0.15;0.175;0.975;1" dur="13.2s" begin="0s" repeatCount="indefinite"/></g><g opacity="0"><g fill="none" stroke="#FFFFFF" stroke-width="9" stroke-linecap="round" stroke-linejoin="round"><rect x="-34" y="-34" width="68" height="68" rx="11"/><polyline points="-18,3 -5,18 22,-15"/></g><animate attributeName="opacity" values="0;1;1;0;0" keyTimes="0;0.025;0.15;0.175;1" dur="13.2s" begin="2.2s" repeatCount="indefinite"/></g><g opacity="0"><g stroke="#FFFFFF" stroke-width="8" stroke-linecap="round" stroke-linejoin="round" fill="none"><line x1="-22" y1="-30" x2="-22" y2="30"/><path d="M -22,-10 C 14,-10 14,10 -22,10"/></g><g fill="#FFFFFF"><circle cx="-22" cy="-32" r="10"/><circle cx="-22" cy="32" r="10"/><circle cx="18" cy="0" r="10"/></g><animate attributeName="opacity" values="0;1;1;0;0" keyTimes="0;0.025;0.15;0.175;1" dur="13.2s" begin="4.4s" repeatCount="indefinite"/></g><g opacity="0"><g fill="none" stroke="#FFFFFF" stroke-width="7" stroke-linejoin="round" stroke-linecap="round"><rect x="-34" y="-34" width="68" height="16" rx="3"/><rect x="-34" y="-8" width="68" height="16" rx="3"/><rect x="-34" y="18" width="68" height="16" rx="3"/><line x1="-15" y1="-18" x2="-15" y2="-8"/><line x1="15" y1="-18" x2="15" y2="-8"/><line x1="-15" y1="8" x2="-15" y2="18"/><line x1="15" y1="8" x2="15" y2="18"/></g><animate attributeName="opacity" values="0;1;1;0;0" keyTimes="0;0.025;0.15;0.175;1" dur="13.2s" begin="6.6000000000000005s" repeatCount="indefinite"/></g><g opacity="0"><g fill="none" stroke="#FFFFFF" stroke-width="6.5" stroke-linejoin="round" stroke-linecap="round"><rect x="-34" y="-34" width="28" height="22" rx="3"/><rect x="6" y="-34" width="28" height="22" rx="3"/><rect x="-17" y="12" width="34" height="22" rx="3"/><path d="M -20,-12 L -3,12"/><path d="M 20,-12 L 3,12"/></g><g fill="#FFFFFF"><polygon points="-3,12 -10,4 -1,6"/><polygon points="3,12 10,4 1,6"/></g><animate attributeName="opacity" values="0;1;1;0;0" keyTimes="0;0.025;0.15;0.175;1" dur="13.2s" begin="8.8s" repeatCount="indefinite"/></g><g opacity="0"><g stroke="#FFFFFF" stroke-width="5.5" fill="none"><line x1="-26" y1="-22" x2="26" y2="-22"/><line x1="-26" y1="-22" x2="-26" y2="22"/><line x1="-26" y1="-22" x2="26" y2="22"/><line x1="26" y1="22" x2="-26" y2="22"/><line x1="26" y1="22" x2="26" y2="-22"/><line x1="0" y1="-22" x2="0" y2="22"/><line x1="-26" y1="22" x2="0" y2="-22"/><line x1="26" y1="-22" x2="0" y2="22"/></g><g fill="#FFFFFF"><circle cx="-26" cy="-22" r="9"/><circle cx="26" cy="-22" r="9"/><circle cx="-26" cy="22" r="9"/><circle cx="26" cy="22" r="9"/><circle cx="0" cy="-22" r="8"/><circle cx="0" cy="22" r="8"/></g><animate attributeName="opacity" values="0;1;1;0;0" keyTimes="0;0.025;0.15;0.175;1" dur="13.2s" begin="11s" repeatCount="indefinite"/></g><circle r="5" fill="#0a1018"/><circle r="5" fill="none" stroke="#24577e" stroke-width=".8"/></g>
      <g transform="translate(565 85)"><circle r="56" fill="#07111f" opacity=".45"/><circle r="54" fill="url(#gold-radial-mobile-v10)"/><circle r="54" fill="none" stroke="#4a3a10" stroke-width="1.5"/><circle r="46" fill="url(#plate-face-dark-mobile-v10)"/><circle r="46" fill="none" stroke="#07111f" stroke-width="1.5"/><ellipse cx="0" cy="-32" rx="5" ry="7" fill="#07111f" opacity=".7"/><ellipse cx="32" cy="0" rx="7" ry="5" fill="#07111f" opacity=".7"/><ellipse cx="0" cy="32" rx="5" ry="7" fill="#07111f" opacity=".7"/><ellipse cx="-32" cy="0" rx="7" ry="5" fill="#07111f" opacity=".7"/><circle r="5" fill="#0a1018"/></g>
      <g transform="translate(640 85)"><circle r="86" fill="#07111f" opacity=".5"/><circle r="82" fill="url(#gold-radial-mobile-v10)"/><circle r="82" fill="none" stroke="#4a3a10" stroke-width="2"/><circle r="74" fill="none" stroke="#fff6c0" stroke-width="1.4" opacity=".75"/><circle r="69" fill="none" stroke="#4a3a10" stroke-width="1.2" opacity=".5"/><circle r="66" fill="url(#plate-face-mobile-v10)"/><circle r="66" fill="none" stroke="#07111f" stroke-width="2.5"/><circle r="56" fill="none" stroke="#ffd34d" stroke-width="1.2" opacity=".4"/><ellipse cx="0" cy="-50" rx="5" ry="8" fill="#07111f" opacity=".55"/><ellipse cx="50" cy="0" rx="8" ry="5" fill="#07111f" opacity=".55"/><ellipse cx="0" cy="50" rx="5" ry="8" fill="#07111f" opacity=".55"/><ellipse cx="-50" cy="0" rx="8" ry="5" fill="#07111f" opacity=".55"/><path d="M -50,-52 Q -10,-66 38,-50" stroke="#ffffff" stroke-width="3.5" fill="none" opacity=".4" stroke-linecap="round"/><path d="M -42,-44 Q -5,-55 32,-44" stroke="#ffffff" stroke-width="1.5" fill="none" opacity=".25" stroke-linecap="round"/><g opacity="1"><g fill="none" stroke="#FFFFFF" stroke-width="9" stroke-linecap="round" stroke-linejoin="round"><polyline points="-18,-22 -40,0 -18,22"/><polyline points="18,-22 40,0 18,22"/><line x1="11" y1="-30" x2="-11" y2="30"/></g><animate attributeName="opacity" values="1;1;0;0;1" keyTimes="0;0.15;0.175;0.975;1" dur="13.2s" begin="0s" repeatCount="indefinite"/></g><g opacity="0"><g fill="none" stroke="#FFFFFF" stroke-width="9" stroke-linecap="round" stroke-linejoin="round"><rect x="-34" y="-34" width="68" height="68" rx="11"/><polyline points="-18,3 -5,18 22,-15"/></g><animate attributeName="opacity" values="0;1;1;0;0" keyTimes="0;0.025;0.15;0.175;1" dur="13.2s" begin="2.2s" repeatCount="indefinite"/></g><g opacity="0"><g stroke="#FFFFFF" stroke-width="8" stroke-linecap="round" stroke-linejoin="round" fill="none"><line x1="-22" y1="-30" x2="-22" y2="30"/><path d="M -22,-10 C 14,-10 14,10 -22,10"/></g><g fill="#FFFFFF"><circle cx="-22" cy="-32" r="10"/><circle cx="-22" cy="32" r="10"/><circle cx="18" cy="0" r="10"/></g><animate attributeName="opacity" values="0;1;1;0;0" keyTimes="0;0.025;0.15;0.175;1" dur="13.2s" begin="4.4s" repeatCount="indefinite"/></g><g opacity="0"><g fill="none" stroke="#FFFFFF" stroke-width="7" stroke-linejoin="round" stroke-linecap="round"><rect x="-34" y="-34" width="68" height="16" rx="3"/><rect x="-34" y="-8" width="68" height="16" rx="3"/><rect x="-34" y="18" width="68" height="16" rx="3"/><line x1="-15" y1="-18" x2="-15" y2="-8"/><line x1="15" y1="-18" x2="15" y2="-8"/><line x1="-15" y1="8" x2="-15" y2="18"/><line x1="15" y1="8" x2="15" y2="18"/></g><animate attributeName="opacity" values="0;1;1;0;0" keyTimes="0;0.025;0.15;0.175;1" dur="13.2s" begin="6.6000000000000005s" repeatCount="indefinite"/></g><g opacity="0"><g fill="none" stroke="#FFFFFF" stroke-width="6.5" stroke-linejoin="round" stroke-linecap="round"><rect x="-34" y="-34" width="28" height="22" rx="3"/><rect x="6" y="-34" width="28" height="22" rx="3"/><rect x="-17" y="12" width="34" height="22" rx="3"/><path d="M -20,-12 L -3,12"/><path d="M 20,-12 L 3,12"/></g><g fill="#FFFFFF"><polygon points="-3,12 -10,4 -1,6"/><polygon points="3,12 10,4 1,6"/></g><animate attributeName="opacity" values="0;1;1;0;0" keyTimes="0;0.025;0.15;0.175;1" dur="13.2s" begin="8.8s" repeatCount="indefinite"/></g><g opacity="0"><g stroke="#FFFFFF" stroke-width="5.5" fill="none"><line x1="-26" y1="-22" x2="26" y2="-22"/><line x1="-26" y1="-22" x2="-26" y2="22"/><line x1="-26" y1="-22" x2="26" y2="22"/><line x1="26" y1="22" x2="-26" y2="22"/><line x1="26" y1="22" x2="26" y2="-22"/><line x1="0" y1="-22" x2="0" y2="22"/><line x1="-26" y1="22" x2="0" y2="-22"/><line x1="26" y1="-22" x2="0" y2="22"/></g><g fill="#FFFFFF"><circle cx="-26" cy="-22" r="9"/><circle cx="26" cy="-22" r="9"/><circle cx="-26" cy="22" r="9"/><circle cx="26" cy="22" r="9"/><circle cx="0" cy="-22" r="8"/><circle cx="0" cy="22" r="8"/></g><animate attributeName="opacity" values="0;1;1;0;0" keyTimes="0;0.025;0.15;0.175;1" dur="13.2s" begin="11s" repeatCount="indefinite"/></g><circle r="5" fill="#0a1018"/><circle r="5" fill="none" stroke="#24577e" stroke-width=".8"/></g>
    </g>
    <g>
      <path d="M 290 66 Q 290 56, 300 56 L 330 56 Q 340 56, 340 66 L 340 92 Q 340 102, 332 104 L 326 110 Q 318 116, 308 110 L 304 104 Q 290 104, 290 92 Z" fill="url(#skin-mobile-v10)" stroke="#533322" stroke-width="1.8" stroke-linejoin="round"/>
      <path d="M 296 62 Q 301 56, 306 62 Q 311 56, 316 62 Q 321 56, 326 62 Q 331 56, 336 62" fill="none" stroke="#533322" stroke-width="1.4" stroke-linecap="round" opacity=".7"/>
      <path d="M 302 60 L 302 78 M 312 60 L 312 78 M 322 60 L 322 78 M 332 60 L 332 78" stroke="#533322" stroke-width="1.3" stroke-linecap="round" opacity=".55"/>
      <path d="M 298 64 Q 314 62, 332 64" stroke="#d49b73" stroke-width="2" fill="none" opacity=".75"/>
      <path d="M 308 92 Q 304 100, 312 108 Q 320 112, 324 102 Q 322 96, 318 94 Z" fill="url(#skin-mobile-v10)" stroke="#533322" stroke-width="1.3"/>
      <ellipse cx="319" cy="101" rx="2" ry="2.5" fill="#d49b73" opacity=".5"/>
      <path d="M 510 66 Q 510 56, 500 56 L 470 56 Q 460 56, 460 66 L 460 92 Q 460 102, 468 104 L 474 110 Q 482 116, 492 110 L 496 104 Q 510 104, 510 92 Z" fill="url(#skin-mobile-v10)" stroke="#533322" stroke-width="1.8" stroke-linejoin="round"/>
      <path d="M 464 62 Q 469 56, 474 62 Q 479 56, 484 62 Q 489 56, 494 62 Q 499 56, 504 62" fill="none" stroke="#533322" stroke-width="1.4" stroke-linecap="round" opacity=".7"/>
      <path d="M 468 60 L 468 78 M 478 60 L 478 78 M 488 60 L 488 78 M 498 60 L 498 78" stroke="#533322" stroke-width="1.3" stroke-linecap="round" opacity=".55"/>
      <path d="M 468 64 Q 484 62, 502 64" stroke="#d49b73" stroke-width="2" fill="none" opacity=".75"/>
      <path d="M 492 92 Q 496 100, 488 108 Q 480 112, 476 102 Q 478 96, 482 94 Z" fill="url(#skin-mobile-v10)" stroke="#533322" stroke-width="1.3"/>
      <ellipse cx="481" cy="101" rx="2" ry="2.5" fill="#d49b73" opacity=".5"/>
    </g>
    <g fill="url(#gold-radial-mobile-v10)" stroke="#4a3a10" stroke-width=".5">
      <g transform="translate(160 -8)"><path d="M 0 -12 L 2 -2 L 12 0 L 2 2 L 0 12 L -2 2 L -12 0 L -2 -2 Z"><animate attributeName="opacity" values="1;0;1" keyTimes="0;0.5;1" dur="2.2s" repeatCount="indefinite"/></path></g>
      <g transform="translate(640 -8)"><path d="M 0 -12 L 2 -2 L 12 0 L 2 2 L 0 12 L -2 2 L -12 0 L -2 -2 Z"><animate attributeName="opacity" values="1;0;1" keyTimes="0;0.5;1" dur="2.2s" repeatCount="indefinite"/></path></g>
      <g transform="translate(110 22)" opacity=".85"><path d="M 0 -7 L 1.2 -1.2 L 7 0 L 1.2 1.2 L 0 7 L -1.2 1.2 L -7 0 L -1.2 -1.2 Z"><animate attributeName="opacity" values="1;0;1" keyTimes="0;0.5;1" dur="2.2s" repeatCount="indefinite"/></path></g>
      <g transform="translate(690 22)" opacity=".85"><path d="M 0 -7 L 1.2 -1.2 L 7 0 L 1.2 1.2 L 0 7 L -1.2 1.2 L -7 0 L -1.2 -1.2 Z"><animate attributeName="opacity" values="1;0;1" keyTimes="0;0.5;1" dur="2.2s" repeatCount="indefinite"/></path></g>
    </g>
  </g>
</svg>