<?xml version="1.0" encoding="UTF-8" standalone="no"?>
<svg
   xmlns:dc="http://purl.org/dc/elements/1.1/"
   xmlns:cc="http://creativecommons.org/ns#"
   xmlns:rdf="http://www.w3.org/1999/02/22-rdf-syntax-ns#"
   xmlns:svg="http://www.w3.org/2000/svg"
   xmlns="http://www.w3.org/2000/svg"
   viewBox="0 0 926.66669 426.66666"
   height="426.66666"
   width="926.66669"
   xml:space="preserve"
   id="svg2"
   version="1.1"><metadata
     id="metadata8"><rdf:RDF><cc:Work
         rdf:about=""><dc:format>image/svg+xml</dc:format><dc:type
           rdf:resource="http://purl.org/dc/dcmitype/StillImage" /></cc:Work></rdf:RDF></metadata><defs
     id="defs6"><clipPath
       id="clipPath20"
       clipPathUnits="userSpaceOnUse"><path
         id="path18"
         d="M 0,0.08000715 H 694.8 V 320.00001 H 0 Z" /></clipPath></defs><g
     transform="matrix(1.3333333,0,0,-1.3333333,0,426.66667)"
     id="g10"><g
       id="g12" /><g
       id="g14"><g
         clip-path="url(#clipPath20)"
         id="g16"><path
           id="path22"
           style="fill:#ffffff;fill-opacity:1;fill-rule:nonzero;stroke:none"
           d="M 0,320 H 694.8 V 0.08000715 H 0 Z" /></g></g><g
       id="g24"><path
         id="path26"
         style="fill:#2f528f;fill-opacity:1;fill-rule:nonzero;stroke:none"
         d="M 0,320 H 694.75 V -0.375031 H 0 Z" /><path
         id="path28"
         style="fill:#ffffff;fill-opacity:1;fill-rule:nonzero;stroke:none"
         d="M 13.17142,308.6087 H 681.2894 V 10.65993 H 13.17142 Z" /><path
         id="path30"
         style="fill:#2f528f;fill-opacity:1;fill-rule:nonzero;stroke:none"
         d="M -0.5661417,320.464 H 695.7579 V -0.3752672 H -0.5661417 Z" /><g
         transform="matrix(7.874016e-5,0,0,-7.874016e-5,-0.5661417,320.464)"
         id="g32"><path
           id="path34"
           style="fill:none;stroke:#2f528f;stroke-width:12700;stroke-linecap:butt;stroke-linejoin:round;stroke-miterlimit:10;stroke-dasharray:none;stroke-opacity:1"
           d="M 0,0 H 8843316 V 4074659 H 0 Z" /></g><path
         id="path36"
         style="fill:#203a68;fill-opacity:1;fill-rule:nonzero;stroke:none"
         d="M 494.1188,323.7182 H 696.5812 V -3.215031 H 494.1188 Z" /><path
         id="path38"
         style="fill:#203a68;fill-opacity:1;fill-rule:nonzero;stroke:none"
         d="M 237.8587,322.2692 H 437.035 V -1.355897 H 237.8587 Z" /><path
         id="path40"
         style="fill:#203a68;fill-opacity:1;fill-rule:nonzero;stroke:none"
         d="M -1.054252,322.2692 H 183.4801 V -1.355897 H -1.054252 Z" /><path
         id="path42"
         style="fill:#2f528f;fill-opacity:1;fill-rule:evenodd;stroke:none"
         d="M 23.57283,304.2424 H 147.9938 l 17.7316,-17.7317 V 239.0716 H 23.57283 Z" /><g
         transform="matrix(7.874016e-5,0,0,-7.874016e-5,23.57283,304.2424)"
         id="g44"><path
           id="path46"
           style="fill:none;stroke:#ffffff;stroke-width:57150;stroke-linecap:butt;stroke-linejoin:round;stroke-miterlimit:10;stroke-dasharray:none;stroke-opacity:1"
           d="m 0,0 h 1580146 l 225191,225191.8 V 827669 H 0 Z" /></g><g
         transform="matrix(0.24,0,0,0.24,70.96614,-61.59999)"
         id="g48"><text
           id="text52"
           style="font-variant:normal;font-weight:bold;font-size:133.33329773px;font-family:'Courier 10 Pitch';-inkscape-font-specification:CourierNewPS-BoldMT;writing-mode:lr-tb;fill:#ffffff;fill-opacity:1;fill-rule:nonzero;stroke:none"
           transform="matrix(1,0,0,-1,0,1333)"><tspan
             id="tspan50"
             y="0"
             x="0 80.21331">&lt;&gt;</tspan></text>
</g><path
         id="path54"
         style="fill:#2f528f;fill-opacity:1;fill-rule:evenodd;stroke:none"
         d="M 25.48024,209.7721 H 128.9558 l 38.6769,-38.6768 V 54.85953 H 25.48024 Z" /><g
         transform="matrix(7.874016e-5,0,0,-7.874016e-5,25.48024,209.7721)"
         id="g56"><path
           id="path58"
           style="fill:none;stroke:#ffffff;stroke-width:57150;stroke-linecap:butt;stroke-linejoin:round;stroke-miterlimit:10;stroke-dasharray:none;stroke-opacity:1"
           d="m 0,0 h 1314140 l 491196,491195.6 V 1967390 H 0 Z" /></g><g
         transform="matrix(0.24,0,0,0.24,47.26224,-176.08)"
         id="g60"><text
           id="text64"
           style="font-variant:normal;font-weight:bold;font-size:275px;font-family:'Courier 10 Pitch';-inkscape-font-specification:CourierNewPS-BoldMT;writing-mode:lr-tb;fill:#ffffff;fill-opacity:1;fill-rule:nonzero;stroke:none"
           transform="matrix(1,0,0,-1,0,1333)"><tspan
             id="tspan62"
             y="0"
             x="0 165.11">C+</tspan></text>
</g><g
         transform="matrix(0.24,0,0,0.24,67.07724,-255.04)"
         id="g66"><text
           id="text70"
           style="font-variant:normal;font-weight:bold;font-size:275px;font-family:'Courier 10 Pitch';-inkscape-font-specification:CourierNewPS-BoldMT;writing-mode:lr-tb;fill:#ffffff;fill-opacity:1;fill-rule:nonzero;stroke:none"
           transform="matrix(1,0,0,-1,0,1333)"><tspan
             id="tspan68"
             y="0"
             x="0">+</tspan></text>
</g><path
         id="path72"
         style="fill:#2f528f;fill-opacity:1;fill-rule:evenodd;stroke:none"
         d="M 13.61063,198.5889 H 117.0862 l 38.6769,-38.6768 V 43.6763 H 13.61063 Z" /><g
         transform="matrix(7.874016e-5,0,0,-7.874016e-5,13.61063,198.5889)"
         id="g74"><path
           id="path76"
           style="fill:none;stroke:#ffffff;stroke-width:57150;stroke-linecap:butt;stroke-linejoin:round;stroke-miterlimit:10;stroke-dasharray:none;stroke-opacity:1"
           d="m 0,0 h 1314140 l 491196,491195.6 V 1967390 H 0 Z" /></g><g
         transform="matrix(0.24,0,0,0.24,24.0176,-229.12)"
         id="g78"><text
           id="text82"
           style="font-variant:normal;font-weight:bold;font-size:225px;font-family:Arial;-inkscape-font-specification:Arial-BoldMT;writing-mode:lr-tb;fill:#ffffff;fill-opacity:1;fill-rule:nonzero;stroke:none"
           transform="matrix(1,0,0,-1,0,1333)"><tspan
             id="tspan80"
             y="0"
             x="0 162.495 293.715">C++</tspan></text>
</g><g
         transform="matrix(7.874016e-5,0,0,-7.874016e-5,19.00094,184.4057)"
         id="g84"><path
           id="path86"
           style="fill:none;stroke:#ffffff;stroke-width:38100;stroke-linecap:round;stroke-linejoin:round;stroke-miterlimit:10;stroke-dasharray:none;stroke-opacity:1"
           d="M 0,0 1076759,1" /></g><g
         transform="matrix(7.874016e-5,0,0,-7.874016e-5,20.95661,164.9574)"
         id="g88"><path
           id="path90"
           style="fill:none;stroke:#ffffff;stroke-width:38100;stroke-linecap:round;stroke-linejoin:round;stroke-miterlimit:10;stroke-dasharray:none;stroke-opacity:1"
           d="M 0,0 1318622,1" /></g><g
         transform="matrix(7.874016e-5,0,0,-7.874016e-5,22.2711,143.0413)"
         id="g92"><path
           id="path94"
           style="fill:none;stroke:#ffffff;stroke-width:38100;stroke-linecap:round;stroke-linejoin:round;stroke-miterlimit:10;stroke-dasharray:none;stroke-opacity:1"
           d="M 0,0 1481204,1" /></g><g
         transform="matrix(7.874016e-5,0,0,-7.874016e-5,22.2711,77.8941)"
         id="g96"><path
           id="path98"
           style="fill:none;stroke:#ffffff;stroke-width:38100;stroke-linecap:round;stroke-linejoin:round;stroke-miterlimit:10;stroke-dasharray:none;stroke-opacity:1"
           d="M 0,0 1481204,1" /></g><g
         transform="matrix(7.874016e-5,0,0,-7.874016e-5,22.2711,57.35393)"
         id="g100"><path
           id="path102"
           style="fill:none;stroke:#ffffff;stroke-width:38100;stroke-linecap:round;stroke-linejoin:round;stroke-miterlimit:10;stroke-dasharray:none;stroke-opacity:1"
           d="M 0,0 1481204,1" /></g><g
         transform="matrix(0.24,0,0,0.24,17.21287,-311.2)"
         id="g104"><text
           id="text108"
           style="font-variant:normal;font-weight:bold;font-size:100px;font-family:Arial;-inkscape-font-specification:Arial-BoldMT;writing-mode:lr-tb;fill:#ffffff;fill-opacity:1;fill-rule:nonzero;stroke:none"
           transform="matrix(1,0,0,-1,0,1333)"><tspan
             id="tspan106"
             y="0"
             x="0 66.669998 127.64 188.61 227.67999 283.45001 339.22 366.79001 439.16 500.13 561.09998">Source Code</tspan></text>
</g><path
         id="path110"
         style="fill:#2f528f;fill-opacity:1;fill-rule:nonzero;stroke:none"
         d="M 253.1846,164.0754 H 420.6557 V 44.31504 H 253.1846 Z" /><g
         transform="matrix(7.874016e-5,0,0,-7.874016e-5,253.1846,164.0754)"
         id="g112"><path
           id="path114"
           style="fill:none;stroke:#ffffff;stroke-width:76200;stroke-linecap:butt;stroke-linejoin:round;stroke-miterlimit:10;stroke-dasharray:none;stroke-opacity:1"
           d="M 0,0 H 2126883 V 1520956 H 0 Z" /></g><g
         transform="matrix(0.24,0,0,0.24,295.3651,-182.56)"
         id="g116"><text
           id="text120"
           style="font-variant:normal;font-weight:bold;font-size:100px;font-family:Arial;-inkscape-font-specification:Arial-BoldMT;writing-mode:lr-tb;fill:#ffffff;fill-opacity:1;fill-rule:nonzero;stroke:none"
           transform="matrix(1,0,0,-1,0,1333)"><tspan
             id="tspan118"
             y="0"
             x="0 72.400002 133.3 194.2 249.89999 273.79999">Node A</tspan></text>
</g><path
         id="path122"
         style="fill:#2f528f;fill-opacity:1;fill-rule:nonzero;stroke:none"
         d="M 252.8377,303.2301 H 420.3088 V 183.4698 H 252.8377 Z" /><g
         transform="matrix(7.874016e-5,0,0,-7.874016e-5,252.8377,303.2301)"
         id="g124"><path
           id="path126"
           style="fill:none;stroke:#ffffff;stroke-width:76200;stroke-linecap:butt;stroke-linejoin:round;stroke-miterlimit:10;stroke-dasharray:none;stroke-opacity:1"
           d="M 0,0 H 2126883 V 1520956 H 0 Z" /></g><g
         transform="matrix(0.24,0,0,0.24,294.5733,-43.35999)"
         id="g128"><text
           id="text132"
           style="font-variant:normal;font-weight:bold;font-size:100px;font-family:Arial;-inkscape-font-specification:Arial-BoldMT;writing-mode:lr-tb;fill:#ffffff;fill-opacity:1;fill-rule:nonzero;stroke:none"
           transform="matrix(1,0,0,-1,0,1333)"><tspan
             id="tspan130"
             y="0"
             x="0 72.400002 133.3 194.2 249.89999 277.5">Node B</tspan></text>
</g><path
         id="path134"
         style="fill:#000000;fill-opacity:1;fill-rule:nonzero;stroke:none"
         d="m 331.0321,168.4176 h 10.1591 v -10.1591 h -10.1591 z" /><g
         transform="matrix(7.874016e-5,0,0,-7.874016e-5,331.0321,168.4176)"
         id="g136"><path
           id="path138"
           style="fill:none;stroke:#ffffff;stroke-width:19050;stroke-linecap:butt;stroke-linejoin:round;stroke-miterlimit:10;stroke-dasharray:none;stroke-opacity:1"
           d="M 0,0 H 129020 V 129020 H 0 Z" /></g><path
         id="path140"
         style="fill:#000000;fill-opacity:1;fill-rule:nonzero;stroke:none"
         d="m 331.0321,188.5139 h 10.1591 v -10.159 h -10.1591 z" /><g
         transform="matrix(7.874016e-5,0,0,-7.874016e-5,331.0321,188.5139)"
         id="g142"><path
           id="path144"
           style="fill:none;stroke:#ffffff;stroke-width:19050;stroke-linecap:butt;stroke-linejoin:round;stroke-miterlimit:10;stroke-dasharray:none;stroke-opacity:1"
           d="M 0,0 H 129020 V 129020 H 0 Z" /></g><g
         transform="matrix(7.874016e-5,0,0,7.874016e-5,336.1116,168.4176)"
         id="g146"><path
           id="path148"
           style="fill:none;stroke:#ffffff;stroke-width:57150;stroke-linecap:butt;stroke-linejoin:round;stroke-miterlimit:10;stroke-dasharray:none;stroke-opacity:1"
           d="M 0,0 1,126204" /></g><g
         transform="matrix(0.24,0,0,0.24,297.4194,-311.44)"
         id="g150"><text
           id="text154"
           style="font-variant:normal;font-weight:bold;font-size:100px;font-family:Arial;-inkscape-font-specification:Arial-BoldMT;writing-mode:lr-tb;fill:#ffffff;fill-opacity:1;fill-rule:nonzero;stroke:none"
           transform="matrix(1,0,0,-1,0,1333)"><tspan
             id="tspan152"
             y="0"
             x="0 83.330002 144.25999 205.19 260.92001 288.54999">Models</tspan></text>
</g><path
         id="path156"
         style="fill:#2f528f;fill-opacity:1;fill-rule:evenodd;stroke:none"
         d="m 294.2294,246.2169 c -1.9543,7.9577 2.9125,15.993 10.8702,17.9472 7.9578,1.9543 15.993,-2.9124 17.9473,-10.8701 1.9543,-7.9577 -2.9125,-15.9929 -10.8703,-17.9472 -7.9577,-1.9543 -15.9929,2.9125 -17.9472,10.8701 z" /><g
         transform="matrix(7.646801e-5,1.877914e-5,1.877914e-5,-7.646801e-5,290.6909,260.6256)"
         id="g158"><path
           id="path160"
           style="fill:none;stroke:#ffffff;stroke-width:19050;stroke-linecap:butt;stroke-linejoin:round;stroke-miterlimit:10;stroke-dasharray:none;stroke-opacity:1"
           d="M 0,188427.5 C 0,84361.86 84362.31,0 188428.5,0 292494.7,0 376857,84361.86 376857,188427.5 376857,292493.1 292494.7,376855 188428.5,376855 84362.31,376855 0,292493.1 0,188427.5 Z" /></g><path
         id="path162"
         style="fill:#2f528f;fill-opacity:1;fill-rule:evenodd;stroke:none"
         d="m 359.3769,253.3002 c 1.9679,7.9543 10.0114,12.8073 17.9658,10.8395 7.9544,-1.9679 12.8075,-10.0114 10.8396,-17.9658 -1.9678,-7.9543 -10.0114,-12.8073 -17.9657,-10.8395 -7.9544,1.9679 -12.8075,10.0114 -10.8397,17.9658 z" /><g
         transform="matrix(7.643586e-5,-1.890957e-5,-1.890957e-5,-7.643586e-5,362.94,267.7028)"
         id="g164"><path
           id="path166"
           style="fill:none;stroke:#ffffff;stroke-width:19050;stroke-linecap:butt;stroke-linejoin:round;stroke-miterlimit:10;stroke-dasharray:none;stroke-opacity:1"
           d="M 0,188427.5 C 0,84361.86 84362.31,0 188428.5,0 292494.7,0 376857,84361.86 376857,188427.5 376857,292493.1 292494.7,376855 188428.5,376855 84362.31,376855 0,292493.1 0,188427.5 Z" /></g><path
         id="path168"
         style="fill:#2f528f;fill-opacity:1;fill-rule:evenodd;stroke:none"
         d="m 326.3749,207.4185 c 0,8.1941 6.6427,14.8368 14.8369,14.8368 8.1942,0 14.8369,-6.6427 14.8369,-14.8368 0,-8.1942 -6.6427,-14.8368 -14.8369,-14.8368 -8.1942,0 -14.8369,6.6426 -14.8369,14.8368 z" /><g
         transform="matrix(7.874016e-5,0,0,-7.874016e-5,326.3749,222.2553)"
         id="g170"><path
           id="path172"
           style="fill:none;stroke:#ffffff;stroke-width:19050;stroke-linecap:butt;stroke-linejoin:round;stroke-miterlimit:10;stroke-dasharray:none;stroke-opacity:1"
           d="M 0,188427.5 C 0,84361.86 84362.31,0 188428.5,0 292494.7,0 376857,84361.86 376857,188427.5 376857,292493.1 292494.7,376855 188428.5,376855 84362.31,376855 0,292493.1 0,188427.5 Z" /></g><path
         id="path174"
         style="fill:#ffffff;fill-opacity:1;fill-rule:nonzero;stroke:none"
         d="m 323.0471,252.1689 34.1025,0.006 -4e-4,2.25 -34.1025,-0.006 z m 27.92,-3.7795 8.415,4.9107 -8.4166,4.9078 c -0.5368,0.313 -1.2256,0.1316 -1.5386,-0.4051 -0.313,-0.5368 -0.1316,-1.2256 0.4052,-1.5386 l 6.7506,-3.9363 -3e-4,1.9435 -6.7493,-3.9387 c -0.5366,-0.3131 -0.7178,-1.002 -0.4047,-1.5387 0.3132,-0.5366 1.0021,-0.7177 1.5387,-0.4046 z" /><path
         id="path176"
         style="fill:#ffffff;fill-opacity:1;fill-rule:nonzero;stroke:none"
         d="m 369.4456,236.1536 -16.8914,-15.898 1.542,-1.6385 16.8914,15.8981 z m -14.9825,-8.9046 -2.7638,-9.3429 9.4931,2.1931 c 0.6054,0.1399 0.9827,0.744 0.8429,1.3494 -0.1399,0.6053 -0.744,0.9827 -1.3494,0.8429 l -7.6139,-1.759 1.332,-1.4153 2.2166,7.4936 c 0.1763,0.5958 -0.1638,1.2216 -0.7596,1.3979 -0.5958,0.1762 -1.2217,-0.1639 -1.3979,-0.7597 z" /><path
         id="path178"
         style="fill:#ffffff;fill-opacity:1;fill-rule:nonzero;stroke:none"
         d="m 329.9499,217.0901 -16.9211,15.9112 1.5413,1.6391 16.9211,-15.9111 z m -15.0089,8.9187 -2.7681,9.3415 9.494,-2.1886 c 0.6055,-0.1396 0.9831,-0.7436 0.8436,-1.349 -0.1396,-0.6054 -0.7436,-0.9831 -1.349,-0.8435 l -7.6148,1.7554 1.3314,1.4159 2.2201,-7.4925 c 0.1766,-0.5957 -0.1633,-1.2217 -0.759,-1.3983 -0.5957,-0.1765 -1.2217,0.1633 -1.3982,0.7591 z" /><path
         id="path180"
         style="fill:#ffffff;fill-opacity:1;fill-rule:nonzero;stroke:none"
         d="m 299.66,240.0337 -0.664,-1.144 -0.8233,-1.1462 -0.9206,-1.043 -1.0079,-0.9361 -1.0854,-0.8258 -1.1533,-0.7122 -1.2115,-0.5959 -1.2603,-0.4764 -1.2997,-0.3541 -1.3299,-0.2288 -1.3508,-0.1005 -1.3623,0.0309 -1.3643,0.1655 -1.3565,0.3031 -1.3388,0.4437 -1.3107,0.587 -1.2449,0.716 -1.1462,0.8233 -1.043,0.9205 -0.9361,1.008 -0.8257,1.0854 -0.7123,1.1533 -0.5958,1.2115 -0.4765,1.2602 -0.3541,1.2998 -0.2288,1.3299 -0.1005,1.3508 0.0309,1.3623 0.1655,1.3643 0.3031,1.3565 0.4437,1.3387 0.587,1.3108 0.716,1.2449 0.8233,1.1462 0.9206,1.043 1.0079,0.9361 1.0854,0.8257 1.1533,0.7123 1.2115,0.5958 1.2603,0.4764 1.2997,0.3541 1.3299,0.2289 1.3508,0.1005 1.3623,-0.0309 1.3643,-0.1655 1.3565,-0.3031 1.3388,-0.4437 1.3107,-0.587 c 0.0488,-0.0221 0.096,-0.0477 0.141,-0.0764 l 0.1281,-0.0817 -1.2098,-1.8971 -0.1281,0.0817 0.141,-0.0763 -1.0994,0.5039 -1.1217,0.3827 -1.1368,0.2644 -1.1444,0.1489 -1.1442,0.0357 -1.136,-0.075 -1.1198,-0.1831 -1.0954,-0.2886 -1.0626,-0.3916 -1.0219,-0.4919 -0.9729,-0.5895 -0.9161,-0.6844 -0.8516,-0.777 -0.7793,-0.8673 -0.6994,-0.9558 -0.6122,-1.0431 -0.5039,-1.0994 -0.3827,-1.1217 -0.2645,-1.1368 -0.1488,-1.1444 -0.0357,-1.1442 0.075,-1.136 0.183,-1.1198 0.2887,-1.0954 0.3916,-1.0627 0.4919,-1.0218 0.5895,-0.9729 0.6844,-0.9161 0.777,-0.8516 0.8673,-0.7793 0.9558,-0.6995 1.0431,-0.6121 1.0994,-0.5039 1.1217,-0.3827 1.1368,-0.2645 1.1444,-0.1488 1.1442,-0.0357 1.136,0.0749 1.1198,0.1831 1.0954,0.2887 1.0626,0.3916 1.0219,0.4919 0.9729,0.5894 0.9161,0.6845 0.8516,0.777 0.7793,0.8673 0.6994,0.9557 0.6641,1.144 z m -8.9911,25.3494 4.4561,-8.6643 -9.7354,0.3859 c -0.6209,0.0247 -1.1042,0.5479 -1.0796,1.1687 0.0246,0.6209 0.5479,1.1042 1.1687,1.0796 l 7.8084,-0.3096 -1.045,-1.6387 -3.574,6.9494 c -0.2842,0.5525 -0.0667,1.2308 0.4859,1.5149 0.5525,0.2842 1.2308,0.0666 1.5149,-0.4859 z" /><path
         id="path182"
         style="fill:#ffffff;fill-opacity:1;fill-rule:evenodd;stroke:none"
         d="m 185.2179,178.586 h 26.3542 v 12.1671 l 24.3341,-24.3342 -24.3341,-24.3341 v 12.1671 h -26.3542 z" /><g
         transform="matrix(7.874016e-5,0,0,-7.874016e-5,185.2179,190.7531)"
         id="g184"><path
           id="path186"
           style="fill:none;stroke:#ffffff;stroke-width:19050;stroke-linecap:butt;stroke-linejoin:miter;stroke-miterlimit:8;stroke-dasharray:none;stroke-opacity:1"
           d="M 0,154521.9 H 334698.1 V 0 L 643741,309043.9 334698.1,618087 V 463565.1 H 0 Z" /></g><g
         transform="matrix(-1.406125e-5,-7.747447e-5,-7.747447e-5,1.406125e-5,570.3264,289.6564)"
         id="g188"><path
           id="path190"
           style="fill:none;stroke:#000000;stroke-width:38100;stroke-linecap:round;stroke-linejoin:round;stroke-miterlimit:10;stroke-dasharray:none;stroke-opacity:1"
           d="m 159143,0 c 87892.2,0 159143,63199.26 159143,141159.5 0,22948.3 -6307.6,45550.5 -18376.5,65849" /></g><g
         transform="matrix(5.842894e-5,5.278324e-5,-5.278324e-5,5.842894e-5,533.9981,225.0353)"
         id="g192"><path
           id="path194"
           style="fill:none;stroke:#000000;stroke-width:38100;stroke-linecap:round;stroke-linejoin:round;stroke-miterlimit:10;stroke-dasharray:none;stroke-opacity:1"
           d="m 159143,0 c 87892.2,0 159143,63199.26 159143,141159.5 0,22948.3 -6307.6,45550.5 -18376.5,65849" /></g><g
         transform="matrix(-4.633699e-5,-6.366236e-5,-6.366236e-5,4.633699e-5,572.2229,267.6289)"
         id="g196"><path
           id="path198"
           style="fill:none;stroke:#000000;stroke-width:38100;stroke-linecap:round;stroke-linejoin:round;stroke-miterlimit:10;stroke-dasharray:none;stroke-opacity:1"
           d="m 132873,0 c 73383.7,0 132873,63906.65 132873,142739.5 0,19609.6 -3761.2,39008.8 -11049.1,56987.7" /></g><g
         transform="matrix(-5.842894e-5,-5.278324e-5,5.278324e-5,-5.842894e-5,533.3144,308.7248)"
         id="g200"><path
           id="path202"
           style="fill:none;stroke:#000000;stroke-width:38100;stroke-linecap:round;stroke-linejoin:round;stroke-miterlimit:10;stroke-dasharray:none;stroke-opacity:1"
           d="m 159143,0 c 87892.2,0 159143,63199.26 159143,141159.5 0,22948.3 -6307.6,45550.5 -18376.5,65849" /></g><g
         transform="matrix(1.406125e-5,7.747447e-5,7.747447e-5,-1.406125e-5,497.5447,243.7928)"
         id="g204"><path
           id="path206"
           style="fill:none;stroke:#000000;stroke-width:38100;stroke-linecap:round;stroke-linejoin:round;stroke-miterlimit:10;stroke-dasharray:none;stroke-opacity:1"
           d="m 159143,0 c 87892.2,0 159143,63199.26 159143,141159.5 0,22948.3 -6307.6,45550.5 -18376.5,65849" /></g><g
         transform="matrix(-2.967981e-5,-7.293231e-5,7.293231e-5,-2.967981e-5,513.5952,298.7267)"
         id="g208"><path
           id="path210"
           style="fill:none;stroke:#000000;stroke-width:38100;stroke-linecap:round;stroke-linejoin:round;stroke-miterlimit:10;stroke-dasharray:none;stroke-opacity:1"
           d="m 132873,0 c 73383.7,0 132873,63906.65 132873,142739.5 0,19609.6 -3761.2,39008.8 -11049.1,56987.7" /></g><path
         id="path212"
         style="fill:#c00000;fill-opacity:1;fill-rule:evenodd;stroke:none"
         d="m 535.9775,282.8177 c 3.8373,6.8952 9.4378,11.0993 12.5092,9.39 3.0713,-1.7092 2.4504,-8.6845 -1.3869,-15.5798 -3.8373,-6.8952 -9.4379,-11.0993 -12.5092,-9.39 -3.0713,1.7092 -2.4504,8.6845 1.3869,15.5798 z" /><g
         transform="matrix(6.880328e-5,-3.828996e-5,-3.828996e-5,-6.880328e-5,542.9255,295.3026)"
         id="g214"><path
           id="path216"
           style="fill:none;stroke:#000000;stroke-width:19050;stroke-linecap:butt;stroke-linejoin:round;stroke-miterlimit:10;stroke-dasharray:none;stroke-opacity:1"
           d="M 0,181458.5 C 0,81241.73 36187.48,0 80827,0 125466.5,0 161654,81241.73 161654,181458.5 161654,281675.2 125466.5,362917 80827,362917 36187.48,362917 0,281675.2 0,181458.5 Z" /></g><path
         id="path218"
         style="fill:#c00000;fill-opacity:1;fill-rule:evenodd;stroke:none"
         d="m 520.9131,275.3469 c 5.7139,10.2674 16.634,15.0913 24.3907,10.7746 7.7567,-4.3167 9.4127,-16.1394 3.6988,-26.4068 -5.714,-10.2673 -16.6341,-15.0913 -24.3908,-10.7746 -7.7567,4.3168 -9.4127,16.1395 -3.6987,26.4068 z" /><g
         transform="matrix(6.880328e-5,-3.828996e-5,-3.828996e-5,-6.880328e-5,531.259,293.9376)"
         id="g220"><path
           id="path222"
           style="fill:none;stroke:#000000;stroke-width:19050;stroke-linecap:butt;stroke-linejoin:round;stroke-miterlimit:10;stroke-dasharray:none;stroke-opacity:1"
           d="M 0,270200.5 C 0,120972.9 91391.66,0 204129,0 316866.3,0 408258,120972.9 408258,270200.5 408258,419428.1 316866.3,540401 204129,540401 91391.66,540401 0,419428.1 0,270200.5 Z" /></g><g
         transform="matrix(6.880328e-5,-3.828996e-5,-3.828996e-5,-6.880328e-5,545.3038,286.1215)"
         id="g224"><path
           id="path226"
           style="fill:none;stroke:#000000;stroke-width:10000;stroke-linecap:butt;stroke-linejoin:round;stroke-miterlimit:10;stroke-dasharray:none;stroke-opacity:1"
           d="M 0,0 1,540401" /></g><path
         id="path228"
         style="fill:#ffffff;fill-opacity:1;fill-rule:evenodd;stroke:none"
         d="m 540.2641,267.8322 c 0.9069,1.6298 2.9633,2.2157 4.5931,1.3087 1.6297,-0.907 2.2156,-2.9634 1.3087,-4.5931 -0.907,-1.6298 -2.9634,-2.2157 -4.5932,-1.3087 -1.6297,0.907 -2.2156,2.9634 -1.3086,4.5931 z" /><g
         transform="matrix(6.880328e-5,-3.828996e-5,-3.828996e-5,-6.880328e-5,541.9063,270.7831)"
         id="g230"><path
           id="path232"
           style="fill:none;stroke:#000000;stroke-width:19050;stroke-linecap:butt;stroke-linejoin:round;stroke-miterlimit:10;stroke-dasharray:none;stroke-opacity:1"
           d="M 0,42889 C 0,19202.06 19202.06,0 42889,0 66575.94,0 85778,19202.06 85778,42889 85778,66575.94 66575.94,85778 42889,85778 19202.06,85778 0,66575.94 0,42889 Z" /></g><path
         id="path234"
         style="fill:#ffffff;fill-opacity:1;fill-rule:evenodd;stroke:none"
         d="m 521.236,263.443 c 0.907,1.6297 2.9634,2.2157 4.5932,1.3087 1.6297,-0.907 2.2156,-2.9634 1.3086,-4.5931 -0.9069,-1.6298 -2.9633,-2.2157 -4.5931,-1.3087 -1.6297,0.907 -2.2156,2.9634 -1.3087,4.5931 z" /><g
         transform="matrix(6.880328e-5,-3.828996e-5,-3.828996e-5,-6.880328e-5,522.8783,266.3939)"
         id="g236"><path
           id="path238"
           style="fill:none;stroke:#000000;stroke-width:19050;stroke-linecap:butt;stroke-linejoin:round;stroke-miterlimit:10;stroke-dasharray:none;stroke-opacity:1"
           d="M 0,42889 C 0,19202.06 19202.06,0 42889,0 66575.94,0 85778,19202.06 85778,42889 85778,66575.94 66575.94,85778 42889,85778 19202.06,85778 0,66575.94 0,42889 Z" /></g><path
         id="path240"
         style="fill:#ffffff;fill-opacity:1;fill-rule:evenodd;stroke:none"
         d="m 533.2438,256.7604 c 0.907,1.6297 2.9634,2.2157 4.5931,1.3087 1.6298,-0.907 2.2157,-2.9634 1.3087,-4.5931 -0.9069,-1.6298 -2.9634,-2.2157 -4.5931,-1.3087 -1.6297,0.907 -2.2156,2.9634 -1.3087,4.5931 z" /><g
         transform="matrix(6.880328e-5,-3.828996e-5,-3.828996e-5,-6.880328e-5,534.886,259.7113)"
         id="g242"><path
           id="path244"
           style="fill:none;stroke:#000000;stroke-width:19050;stroke-linecap:butt;stroke-linejoin:round;stroke-miterlimit:10;stroke-dasharray:none;stroke-opacity:1"
           d="M 0,42889 C 0,19202.06 19202.06,0 42889,0 66575.94,0 85778,19202.06 85778,42889 85778,66575.94 66575.94,85778 42889,85778 19202.06,85778 0,66575.94 0,42889 Z" /></g><path
         id="path246"
         style="fill:#ffffff;fill-opacity:1;fill-rule:evenodd;stroke:none"
         d="m 525.4565,275.8906 c 0.907,1.6297 2.9634,2.2156 4.5932,1.3087 1.6297,-0.907 2.2156,-2.9634 1.3086,-4.5932 -0.9069,-1.6297 -2.9633,-2.2156 -4.5931,-1.3087 -1.6297,0.907 -2.2156,2.9634 -1.3087,4.5932 z" /><g
         transform="matrix(6.880328e-5,-3.828996e-5,-3.828996e-5,-6.880328e-5,527.0988,278.8415)"
         id="g248"><path
           id="path250"
           style="fill:none;stroke:#000000;stroke-width:19050;stroke-linecap:butt;stroke-linejoin:round;stroke-miterlimit:10;stroke-dasharray:none;stroke-opacity:1"
           d="M 0,42889 C 0,19202.06 19202.06,0 42889,0 66575.94,0 85778,19202.06 85778,42889 85778,66575.94 66575.94,85778 42889,85778 19202.06,85778 0,66575.94 0,42889 Z" /></g><path
         id="path252"
         style="fill:#ffffff;fill-opacity:1;fill-rule:evenodd;stroke:none"
         d="m 538.2087,280.7391 c 0.907,1.6297 2.9634,2.2156 4.5931,1.3087 1.6298,-0.907 2.2157,-2.9634 1.3087,-4.5932 -0.907,-1.6297 -2.9634,-2.2156 -4.5931,-1.3087 -1.6297,0.907 -2.2157,2.9634 -1.3087,4.5932 z" /><g
         transform="matrix(6.880328e-5,-3.828996e-5,-3.828996e-5,-6.880328e-5,539.8509,283.69)"
         id="g254"><path
           id="path256"
           style="fill:none;stroke:#000000;stroke-width:19050;stroke-linecap:butt;stroke-linejoin:round;stroke-miterlimit:10;stroke-dasharray:none;stroke-opacity:1"
           d="M 0,42889 C 0,19202.06 19202.06,0 42889,0 66575.94,0 85778,19202.06 85778,42889 85778,66575.94 66575.94,85778 42889,85778 19202.06,85778 0,66575.94 0,42889 Z" /></g><path
         id="path258"
         style="fill:#ffffff;fill-opacity:1;fill-rule:evenodd;stroke:none"
         d="m 438.3777,178.586 h 29.8337 v 12.1671 l 24.3341,-24.3342 -24.3341,-24.3341 v 12.1671 h -29.8337 z" /><g
         transform="matrix(7.874016e-5,0,0,-7.874016e-5,438.3777,190.7531)"
         id="g260"><path
           id="path262"
           style="fill:none;stroke:#ffffff;stroke-width:19050;stroke-linecap:butt;stroke-linejoin:miter;stroke-miterlimit:8;stroke-dasharray:none;stroke-opacity:1"
           d="M 0,154521.9 H 378887.9 V 0 L 687931,309043.9 378887.9,618087 V 463565.1 H 0 Z" /></g><path
         id="path264"
         style="fill:#2f528f;fill-opacity:1;fill-rule:evenodd;stroke:none"
         d="m 278.4432,93.46516 c 0,8.19414 6.6427,14.83684 14.8369,14.83684 8.1942,0 14.8369,-6.6427 14.8369,-14.83684 0,-8.19414 -6.6427,-14.83681 -14.8369,-14.83681 -8.1942,0 -14.8369,6.64267 -14.8369,14.83681 z" /><g
         transform="matrix(7.874016e-5,0,0,-7.874016e-5,278.4432,108.302)"
         id="g266"><path
           id="path268"
           style="fill:none;stroke:#ffffff;stroke-width:19050;stroke-linecap:butt;stroke-linejoin:round;stroke-miterlimit:10;stroke-dasharray:none;stroke-opacity:1"
           d="M 0,188427.5 C 0,84361.86 84362.31,0 188428.5,0 292494.7,0 376857,84361.86 376857,188427.5 376857,292493.1 292494.7,376855 188428.5,376855 84362.31,376855 0,292493.1 0,188427.5 Z" /></g><path
         id="path270"
         style="fill:#ffffff;fill-opacity:1;fill-rule:nonzero;stroke:none"
         d="m 308.1221,92.34014 54.3694,0.24795 -0.0103,2.24998 -54.3693,-0.24795 z m 48.2035,-3.56446 8.3934,4.94758 -8.4382,4.87082 c -0.5381,0.31062 -1.2261,0.1262 -1.5367,-0.41191 -0.3106,-0.5381 -0.1262,-1.22613 0.4119,-1.53674 l 6.7679,-3.90668 -0.009,1.94348 -6.7319,-3.96824 c -0.5353,-0.31551 -0.7134,-1.00518 -0.3979,-1.54043 0.3155,-0.53525 1.0052,-0.71339 1.5404,-0.39788 z" /><path
         id="path272"
         style="fill:#2f528f;fill-opacity:1;fill-rule:evenodd;stroke:none"
         d="m 364.7138,93.72327 c 0,8.19413 6.6427,14.83683 14.8369,14.83683 8.1941,0 14.8369,-6.6427 14.8369,-14.83683 0,-8.19415 -6.6428,-14.83681 -14.8369,-14.83681 -8.1942,0 -14.8369,6.64266 -14.8369,14.83681 z" /><g
         transform="matrix(7.874016e-5,0,0,-7.874016e-5,364.7138,108.5601)"
         id="g274"><path
           id="path276"
           style="fill:none;stroke:#ffffff;stroke-width:19050;stroke-linecap:butt;stroke-linejoin:round;stroke-miterlimit:10;stroke-dasharray:none;stroke-opacity:1"
           d="M 0,188427.5 C 0,84361.86 84362.31,0 188428.5,0 292494.7,0 376857,84361.86 376857,188427.5 376857,292493.1 292494.7,376855 188428.5,376855 84362.31,376855 0,292493.1 0,188427.5 Z" /></g><path
         id="path278"
         style="fill:#ffffff;fill-opacity:1;fill-rule:nonzero;stroke:none"
         d="M 414.581,296.1856 H 393.4153 V 276.6625 H 414.581 Z" /><g
         transform="matrix(-7.874016e-5,0,0,-7.874016e-5,414.581,296.1856)"
         id="g280"><path
           id="path282"
           style="fill:none;stroke:#000000;stroke-width:19050;stroke-linecap:butt;stroke-linejoin:round;stroke-miterlimit:10;stroke-dasharray:none;stroke-opacity:1"
           d="M 0,0 H 268805 V 247943 H 0 Z" /></g><path
         id="path284"
         style="fill:#ffffff;fill-opacity:1;fill-rule:nonzero;stroke:none"
         d="m 403.4104,293.0355 h -18.5032 v -4.9837 h 18.5032 z" /><g
         transform="matrix(-7.874016e-5,0,0,-7.874016e-5,403.4104,293.0355)"
         id="g286"><path
           id="path288"
           style="fill:none;stroke:#000000;stroke-width:19050;stroke-linecap:butt;stroke-linejoin:round;stroke-miterlimit:10;stroke-dasharray:none;stroke-opacity:1"
           d="M 0,0 H 234990 V 63293 H 0 Z" /></g><path
         id="path290"
         style="fill:#ffffff;fill-opacity:1;fill-rule:nonzero;stroke:none"
         d="m 384.9072,279.4927 h 18.50315 v 4.9837 H 384.9072 Z" /><g
         transform="matrix(-7.874016e-5,0,0,-7.874016e-5,403.4104,284.4764)"
         id="g292"><path
           id="path294"
           style="fill:none;stroke:#000000;stroke-width:19050;stroke-linecap:butt;stroke-linejoin:round;stroke-miterlimit:10;stroke-dasharray:none;stroke-opacity:1"
           d="M 0,0 H 234990 V 63293 H 0 Z" /></g><path
         id="path296"
         style="fill:#ffffff;fill-opacity:1;fill-rule:nonzero;stroke:none"
         d="m 392.1224,137.1933 h 21.16575 v 19.52307 H 392.1224 Z" /><g
         transform="matrix(-7.874016e-5,0,0,-7.874016e-5,413.2881,156.7164)"
         id="g298"><path
           id="path300"
           style="fill:none;stroke:#000000;stroke-width:19050;stroke-linecap:butt;stroke-linejoin:round;stroke-miterlimit:10;stroke-dasharray:none;stroke-opacity:1"
           d="M 0,0 H 268805 V 247943 H 0 Z" /></g><path
         id="path302"
         style="fill:#ffffff;fill-opacity:1;fill-rule:nonzero;stroke:none"
         d="m 383.6143,148.5826 h 18.50315 v 4.9837 H 383.6143 Z" /><g
         transform="matrix(-7.874016e-5,0,0,-7.874016e-5,402.1175,153.5663)"
         id="g304"><path
           id="path306"
           style="fill:none;stroke:#000000;stroke-width:19050;stroke-linecap:butt;stroke-linejoin:round;stroke-miterlimit:10;stroke-dasharray:none;stroke-opacity:1"
           d="M 0,0 H 234990 V 63293 H 0 Z" /></g><path
         id="path308"
         style="fill:#ffffff;fill-opacity:1;fill-rule:nonzero;stroke:none"
         d="m 383.6143,140.0235 h 18.50315 v 4.9837 H 383.6143 Z" /><g
         transform="matrix(-7.874016e-5,0,0,-7.874016e-5,402.1175,145.0072)"
         id="g310"><path
           id="path312"
           style="fill:none;stroke:#000000;stroke-width:19050;stroke-linecap:butt;stroke-linejoin:round;stroke-miterlimit:10;stroke-dasharray:none;stroke-opacity:1"
           d="M 0,0 H 234990 V 63293 H 0 Z" /></g><path
         id="path314"
         style="fill:#2f528f;fill-opacity:1;fill-rule:evenodd;stroke:none"
         d="M 13.25197,292.245 H 137.6729 l 17.7316,-17.7316 V 227.0743 H 13.25197 Z" /><g
         transform="matrix(7.874016e-5,0,0,-7.874016e-5,13.25197,292.245)"
         id="g316"><path
           id="path318"
           style="fill:none;stroke:#ffffff;stroke-width:57150;stroke-linecap:butt;stroke-linejoin:round;stroke-miterlimit:10;stroke-dasharray:none;stroke-opacity:1"
           d="m 0,0 h 1580146 l 225191,225191.8 V 827669 H 0 Z" /></g><g
         transform="matrix(0.24,0,0,0.24,27.27031,-73.35999)"
         id="g320"><text
           id="text324"
           style="font-variant:normal;font-weight:bold;font-size:100px;font-family:Arial;-inkscape-font-specification:Arial-BoldMT;writing-mode:lr-tb;fill:#ffffff;fill-opacity:1;fill-rule:nonzero;stroke:none"
           transform="matrix(1,0,0,-1,0,1333)"><tspan
             id="tspan322"
             y="0"
             x="0 58.330002 85.959999 141.69 202.62 263.54999 319.28 380.20999">&lt;launch&gt;</tspan></text>
</g><g
         transform="matrix(0.24,0,0,0.24,514.0374,-312.64)"
         id="g326"><text
           id="text330"
           style="font-variant:normal;font-weight:bold;font-size:100px;font-family:Arial;-inkscape-font-specification:Arial-BoldMT;writing-mode:lr-tb;fill:#ffffff;fill-opacity:1;fill-rule:nonzero;stroke:none"
           transform="matrix(1,0,0,-1,0,1333)"><tspan
             id="tspan328"
             y="0"
             x="0 72.400002 133.3 194.2 221.8 294.20001 349.89999 383.20001 438.89999 494.60001 527.90002 555.5 616.40002">Bug Detection</tspan></text>
</g><g
         transform="matrix(0.24,0,0,0.24,590.896,-41.43999)"
         id="g332"><text
           id="text336"
           style="font-variant:normal;font-weight:bold;font-size:75px;font-family:Arial;-inkscape-font-specification:Arial-BoldMT;writing-mode:lr-tb;fill:#f0f000;fill-opacity:1;fill-rule:nonzero;stroke:none"
           transform="matrix(1,0,0,-1,0,1333)"><tspan
             id="tspan334"
             y="0"
             x="0 62.497501 83.294998 124.9425 166.59 187.3875 233.235">Missing</tspan></text>
</g><g
         transform="matrix(0.24,0,0,0.24,580.896,-62.31999)"
         id="g338" /><g
         transform="matrix(0.24,0,0,0.24,585.8961,-62.31999)"
         id="g340"><text
           id="text344"
           style="font-variant:normal;font-weight:bold;font-size:75px;font-family:Arial;-inkscape-font-specification:Arial-BoldMT;writing-mode:lr-tb;fill:#f0f000;fill-opacity:1;fill-rule:nonzero;stroke:none"
           transform="matrix(1,0,0,-1,0,1333)"><tspan
             id="tspan342"
             y="0"
             x="0 50.002499 95.805 141.6075 162.435 183.2625 224.94 270.74249 312.42001">Publisher</tspan></text>
</g><g
         transform="matrix(0.24,0,0,0.24,536.0957,-128.32)"
         id="g346"><text
           id="text350"
           style="font-variant:normal;font-weight:bold;font-size:75px;font-family:Arial;-inkscape-font-specification:Arial-BoldMT;writing-mode:lr-tb;fill:#f0f000;fill-opacity:1;fill-rule:nonzero;stroke:none"
           transform="matrix(1,0,0,-1,0,1333)"><tspan
             id="tspan348"
             y="0"
             x="0 50.002499 75.029999 116.7075 141.735">State</tspan></text>
</g><g
         transform="matrix(0.24,0,0,0.24,518.0957,-149.2)"
         id="g352"><text
           id="text356"
           style="font-variant:normal;font-weight:bold;font-size:75px;font-family:Arial;-inkscape-font-specification:Arial-BoldMT;writing-mode:lr-tb;fill:#f0f000;fill-opacity:1;fill-rule:nonzero;stroke:none"
           transform="matrix(1,0,0,-1,0,1333)"><tspan
             id="tspan354"
             y="0"
             x="0 54.165001 95.805 137.44501 183.285 204.14999 249.99001 291.63">Deadlock</tspan></text>
</g><g
         transform="matrix(0.24,0,0,0.24,588.4805,-221.44)"
         id="g358"><text
           id="text362"
           style="font-variant:normal;font-weight:bold;font-size:75px;font-family:Arial;-inkscape-font-specification:Arial-BoldMT;writing-mode:lr-tb;fill:#f0f000;fill-opacity:1;fill-rule:nonzero;stroke:none"
           transform="matrix(1,0,0,-1,0,1333)"><tspan
             id="tspan360"
             y="0"
             x="0 40.267502 86.084999 131.9025 152.745 206.8875 227.73 273.54749 319.36499">Too High </tspan></text>
</g><g
         transform="matrix(0.24,0,0,0.24,581.3156,-242.56)"
         id="g364"><text
           id="text368"
           style="font-variant:normal;font-weight:bold;font-size:75px;font-family:Arial;-inkscape-font-specification:Arial-BoldMT;writing-mode:lr-tb;fill:#f0f000;fill-opacity:1;fill-rule:nonzero;stroke:none"
           transform="matrix(1,0,0,-1,0,1333)"><tspan
             id="tspan366"
             y="0"
             x="0 45.8325 75.014999 116.6475 162.48 208.3125 249.94501 295.7775 337.41">Frequency</tspan></text>
</g><g
         transform="matrix(1.497866e-5,7.730234e-5,7.730234e-5,-1.497866e-5,611.5615,161.1691)"
         id="g370"><path
           id="path372"
           style="fill:none;stroke:#000000;stroke-width:38100;stroke-linecap:round;stroke-linejoin:round;stroke-miterlimit:10;stroke-dasharray:none;stroke-opacity:1"
           d="m 159143,0 c 87892.2,0 159143,63199.26 159143,141159.5 0,22948.3 -6307.6,45550.5 -18376.5,65849" /></g><g
         transform="matrix(-5.905055e-5,-5.20869e-5,5.20869e-5,-5.905055e-5,648.6533,225.3552)"
         id="g374"><path
           id="path376"
           style="fill:none;stroke:#000000;stroke-width:38100;stroke-linecap:round;stroke-linejoin:round;stroke-miterlimit:10;stroke-dasharray:none;stroke-opacity:1"
           d="m 159143,0 c 87892.2,0 159143,63199.26 159143,141159.5 0,22948.3 -6307.6,45550.5 -18376.5,65849" /></g><g
         transform="matrix(4.70884e-5,6.310859e-5,6.310859e-5,-4.70884e-5,609.9263,183.2177)"
         id="g378"><path
           id="path380"
           style="fill:none;stroke:#000000;stroke-width:38100;stroke-linecap:round;stroke-linejoin:round;stroke-miterlimit:10;stroke-dasharray:none;stroke-opacity:1"
           d="m 132873,0 c 73383.7,0 132873,63906.65 132873,142739.5 0,19609.6 -3761.2,39008.8 -11049.1,56987.7" /></g><g
         transform="matrix(5.905055e-5,5.20869e-5,-5.20869e-5,5.905055e-5,648.3448,141.6633)"
         id="g382"><path
           id="path384"
           style="fill:none;stroke:#000000;stroke-width:38100;stroke-linecap:round;stroke-linejoin:round;stroke-miterlimit:10;stroke-dasharray:none;stroke-opacity:1"
           d="m 159143,0 c 87892.2,0 159143,63199.26 159143,141159.5 0,22948.3 -6307.6,45550.5 -18376.5,65849" /></g><g
         transform="matrix(-1.497866e-5,-7.730234e-5,-7.730234e-5,1.497866e-5,684.8818,206.1668)"
         id="g386"><path
           id="path388"
           style="fill:none;stroke:#000000;stroke-width:38100;stroke-linecap:round;stroke-linejoin:round;stroke-miterlimit:10;stroke-dasharray:none;stroke-opacity:1"
           d="m 159143,0 c 87892.2,0 159143,63199.26 159143,141159.5 0,22948.3 -6307.6,45550.5 -18376.5,65849" /></g><g
         transform="matrix(3.054228e-5,7.257535e-5,-7.257535e-5,3.054228e-5,668.1812,151.427)"
         id="g390"><path
           id="path392"
           style="fill:none;stroke:#000000;stroke-width:38100;stroke-linecap:round;stroke-linejoin:round;stroke-miterlimit:10;stroke-dasharray:none;stroke-opacity:1"
           d="m 132873,0 c 73383.7,0 132873,63906.65 132873,142739.5 0,19609.6 -3761.2,39008.8 -11049.1,56987.7" /></g><path
         id="path394"
         style="fill:#c00000;fill-opacity:1;fill-rule:evenodd;stroke:none"
         d="m 645.989,167.6003 c -3.9188,-6.8492 -9.5688,-10.9866 -12.6196,-9.2411 -3.0509,1.7455 -2.3473,8.713 1.5714,15.5623 3.9188,6.8492 9.5688,10.9866 12.6197,9.2411 3.0508,-1.7455 2.3473,-8.713 -1.5715,-15.5623 z" /><g
         transform="matrix(-6.834454e-5,3.910288e-5,3.910288e-5,6.834454e-5,638.8935,155.1986)"
         id="g396"><path
           id="path398"
           style="fill:none;stroke:#000000;stroke-width:19050;stroke-linecap:butt;stroke-linejoin:round;stroke-miterlimit:10;stroke-dasharray:none;stroke-opacity:1"
           d="M 0,181458.5 C 0,81241.73 36187.48,0 80827,0 125466.5,0 161654,81241.73 161654,181458.5 161654,281675.2 125466.5,362917 80827,362917 36187.48,362917 0,281675.2 0,181458.5 Z" /></g><path
         id="path400"
         style="fill:#c00000;fill-opacity:1;fill-rule:evenodd;stroke:none"
         d="m 661.1411,174.8919 c -5.8352,-10.1989 -16.8117,-14.8931 -24.5167,-10.4847 -7.705,4.4083 -9.2207,16.2498 -3.3855,26.4487 5.8352,10.1989 16.8117,14.8931 24.5167,10.4847 7.705,-4.4083 9.2207,-16.2498 3.3855,-26.4487 z" /><g
         transform="matrix(-6.834454e-5,3.910288e-5,3.910288e-5,6.834454e-5,650.5755,156.4251)"
         id="g402"><path
           id="path404"
           style="fill:none;stroke:#000000;stroke-width:19050;stroke-linecap:butt;stroke-linejoin:round;stroke-miterlimit:10;stroke-dasharray:none;stroke-opacity:1"
           d="M 0,270200.5 C 0,120972.9 91391.66,0 204129,0 316866.3,0 408258,120972.9 408258,270200.5 408258,419428.1 316866.3,540401 204129,540401 91391.66,540401 0,419428.1 0,270200.5 Z" /></g><g
         transform="matrix(-6.834454e-5,3.910288e-5,3.910288e-5,6.834454e-5,636.6244,164.4072)"
         id="g406"><path
           id="path408"
           style="fill:none;stroke:#000000;stroke-width:10000;stroke-linecap:butt;stroke-linejoin:round;stroke-miterlimit:10;stroke-dasharray:none;stroke-opacity:1"
           d="M 0,0 1,540401" /></g><path
         id="path410"
         style="fill:#ffffff;fill-opacity:1;fill-rule:evenodd;stroke:none"
         d="m 641.8805,182.6355 c -0.9262,-1.6189 -2.9894,-2.1804 -4.6083,-1.2541 -1.6189,0.9262 -2.1804,2.9894 -1.2541,4.6083 0.9262,1.6189 2.9894,2.1804 4.6083,1.2541 1.6189,-0.9262 2.1804,-2.9894 1.2541,-4.6083 z" /><g
         transform="matrix(-6.834454e-5,3.910288e-5,3.910288e-5,6.834454e-5,640.2034,179.7043)"
         id="g412"><path
           id="path414"
           style="fill:none;stroke:#000000;stroke-width:19050;stroke-linecap:butt;stroke-linejoin:round;stroke-miterlimit:10;stroke-dasharray:none;stroke-opacity:1"
           d="M 0,42889 C 0,19202.06 19202.06,0 42889,0 66575.94,0 85778,19202.06 85778,42889 85778,66575.94 66575.94,85778 42889,85778 19202.06,85778 0,66575.94 0,42889 Z" /></g><path
         id="path416"
         style="fill:#ffffff;fill-opacity:1;fill-rule:evenodd;stroke:none"
         d="m 660.9592,186.7988 c -0.9262,-1.6189 -2.9894,-2.1804 -4.6083,-1.2541 -1.6188,0.9262 -2.1803,2.9894 -1.2541,4.6083 0.9262,1.6189 2.9894,2.1804 4.6083,1.2541 1.6189,-0.9262 2.1804,-2.9894 1.2541,-4.6083 z" /><g
         transform="matrix(-6.834454e-5,3.910288e-5,3.910288e-5,6.834454e-5,659.2822,183.8676)"
         id="g418"><path
           id="path420"
           style="fill:none;stroke:#000000;stroke-width:19050;stroke-linecap:butt;stroke-linejoin:round;stroke-miterlimit:10;stroke-dasharray:none;stroke-opacity:1"
           d="M 0,42889 C 0,19202.06 19202.06,0 42889,0 66575.94,0 85778,19202.06 85778,42889 85778,66575.94 66575.94,85778 42889,85778 19202.06,85778 0,66575.94 0,42889 Z" /></g><path
         id="path422"
         style="fill:#ffffff;fill-opacity:1;fill-rule:evenodd;stroke:none"
         d="m 649.0314,193.6232 c -0.9262,-1.6188 -2.9894,-2.1803 -4.6083,-1.2541 -1.6189,0.9262 -2.1804,2.9894 -1.2541,4.6083 0.9262,1.6189 2.9894,2.1804 4.6083,1.2541 1.6189,-0.9262 2.1804,-2.9894 1.2541,-4.6083 z" /><g
         transform="matrix(-6.834454e-5,3.910288e-5,3.910288e-5,6.834454e-5,647.3543,190.692)"
         id="g424"><path
           id="path426"
           style="fill:none;stroke:#000000;stroke-width:19050;stroke-linecap:butt;stroke-linejoin:round;stroke-miterlimit:10;stroke-dasharray:none;stroke-opacity:1"
           d="M 0,42889 C 0,19202.06 19202.06,0 42889,0 66575.94,0 85778,19202.06 85778,42889 85778,66575.94 66575.94,85778 42889,85778 19202.06,85778 0,66575.94 0,42889 Z" /></g><path
         id="path428"
         style="fill:#ffffff;fill-opacity:1;fill-rule:evenodd;stroke:none"
         d="m 656.5914,174.4021 c -0.9262,-1.6188 -2.9894,-2.1803 -4.6083,-1.2541 -1.6189,0.9262 -2.1804,2.9894 -1.2541,4.6083 0.9262,1.6189 2.9894,2.1804 4.6083,1.2541 1.6189,-0.9262 2.1804,-2.9894 1.2541,-4.6083 z" /><g
         transform="matrix(-6.834454e-5,3.910288e-5,3.910288e-5,6.834454e-5,654.9143,171.4709)"
         id="g430"><path
           id="path432"
           style="fill:none;stroke:#000000;stroke-width:19050;stroke-linecap:butt;stroke-linejoin:round;stroke-miterlimit:10;stroke-dasharray:none;stroke-opacity:1"
           d="M 0,42889 C 0,19202.06 19202.06,0 42889,0 66575.94,0 85778,19202.06 85778,42889 85778,66575.94 66575.94,85778 42889,85778 19202.06,85778 0,66575.94 0,42889 Z" /></g><path
         id="path434"
         style="fill:#ffffff;fill-opacity:1;fill-rule:evenodd;stroke:none"
         d="m 643.7827,169.7051 c -0.9262,-1.6189 -2.9894,-2.1804 -4.6083,-1.2541 -1.6189,0.9262 -2.1804,2.9894 -1.2541,4.6083 0.9262,1.6189 2.9894,2.1804 4.6083,1.2541 1.6188,-0.9262 2.1803,-2.9894 1.2541,-4.6083 z" /><g
         transform="matrix(-6.834454e-5,3.910288e-5,3.910288e-5,6.834454e-5,642.1056,166.7739)"
         id="g436"><path
           id="path438"
           style="fill:none;stroke:#000000;stroke-width:19050;stroke-linecap:butt;stroke-linejoin:round;stroke-miterlimit:10;stroke-dasharray:none;stroke-opacity:1"
           d="M 0,42889 C 0,19202.06 19202.06,0 42889,0 66575.94,0 85778,19202.06 85778,42889 85778,66575.94 66575.94,85778 42889,85778 19202.06,85778 0,66575.94 0,42889 Z" /></g><g
         transform="matrix(-1.493933e-5,-7.730995e-5,-7.730995e-5,1.493933e-5,571.9838,109.8509)"
         id="g440"><path
           id="path442"
           style="fill:none;stroke:#000000;stroke-width:38100;stroke-linecap:round;stroke-linejoin:round;stroke-miterlimit:10;stroke-dasharray:none;stroke-opacity:1"
           d="m 159143,0 c 87892.2,0 159143,63199.26 159143,141159.5 0,22948.3 -6307.6,45550.5 -18376.5,65849" /></g><g
         transform="matrix(5.902404e-5,5.211694e-5,-5.211694e-5,5.902404e-5,534.9247,45.64617)"
         id="g444"><path
           id="path446"
           style="fill:none;stroke:#000000;stroke-width:38100;stroke-linecap:round;stroke-linejoin:round;stroke-miterlimit:10;stroke-dasharray:none;stroke-opacity:1"
           d="m 159143,0 c 87892.2,0 159143,63199.26 159143,141159.5 0,22948.3 -6307.6,45550.5 -18376.5,65849" /></g><g
         transform="matrix(-4.705629e-5,-6.313254e-5,-6.313254e-5,4.705629e-5,573.6303,87.80329)"
         id="g448"><path
           id="path450"
           style="fill:none;stroke:#000000;stroke-width:38100;stroke-linecap:round;stroke-linejoin:round;stroke-miterlimit:10;stroke-dasharray:none;stroke-opacity:1"
           d="m 132873,0 c 73383.7,0 132873,63906.65 132873,142739.5 0,19609.6 -3761.2,39008.8 -11049.1,56987.7" /></g><g
         transform="matrix(-5.902404e-5,-5.211694e-5,5.211694e-5,-5.902404e-5,535.1906,129.338)"
         id="g452"><path
           id="path454"
           style="fill:none;stroke:#000000;stroke-width:38100;stroke-linecap:round;stroke-linejoin:round;stroke-miterlimit:10;stroke-dasharray:none;stroke-opacity:1"
           d="m 159143,0 c 87892.2,0 159143,63199.26 159143,141159.5 0,22948.3 -6307.6,45550.5 -18376.5,65849" /></g><g
         transform="matrix(1.493933e-5,7.730995e-5,7.730995e-5,-1.493933e-5,498.6865,64.81608)"
         id="g456"><path
           id="path458"
           style="fill:none;stroke:#000000;stroke-width:38100;stroke-linecap:round;stroke-linejoin:round;stroke-miterlimit:10;stroke-dasharray:none;stroke-opacity:1"
           d="m 159143,0 c 87892.2,0 159143,63199.26 159143,141159.5 0,22948.3 -6307.6,45550.5 -18376.5,65849" /></g><g
         transform="matrix(-3.050535e-5,-7.259088e-5,7.259088e-5,-3.050535e-5,515.3592,119.5644)"
         id="g460"><path
           id="path462"
           style="fill:none;stroke:#000000;stroke-width:38100;stroke-linecap:round;stroke-linejoin:round;stroke-miterlimit:10;stroke-dasharray:none;stroke-opacity:1"
           d="m 132873,0 c 73383.7,0 132873,63906.65 132873,142739.5 0,19609.6 -3761.2,39008.8 -11049.1,56987.7" /></g><path
         id="path464"
         style="fill:#c00000;fill-opacity:1;fill-rule:evenodd;stroke:none"
         d="m 537.5596,103.4024 c 3.9153,6.8512 9.5632,10.9915 12.615,9.2475 3.0517,-1.744 2.3517,-8.7118 -1.5636,-15.56305 -3.9153,-6.85126 -9.5632,-10.99153 -12.6149,-9.24755 -3.0518,1.74398 -2.3517,8.7118 1.5635,15.5631 z" /><g
         transform="matrix(6.836443e-5,-3.906811e-5,-3.906811e-5,-6.836443e-5,544.6489,115.8077)"
         id="g466"><path
           id="path468"
           style="fill:none;stroke:#000000;stroke-width:19050;stroke-linecap:butt;stroke-linejoin:round;stroke-miterlimit:10;stroke-dasharray:none;stroke-opacity:1"
           d="M 0,181458.5 C 0,81241.73 36187.48,0 80827,0 125466.5,0 161654,81241.73 161654,181458.5 161654,281675.2 125466.5,362917 80827,362917 36187.48,362917 0,281675.2 0,181458.5 Z" /></g><path
         id="path470"
         style="fill:#c00000;fill-opacity:1;fill-rule:evenodd;stroke:none"
         d="m 522.4113,96.103 c 5.8301,10.2019 16.8042,14.9016 24.5114,10.4972 7.7073,-4.4045 9.229,-16.2452 3.399,-26.44706 -5.8301,-10.20186 -16.8042,-14.90161 -24.5114,-10.49717 -7.7072,4.40443 -9.229,16.24518 -3.399,26.44703 z" /><g
         transform="matrix(6.836443e-5,-3.906811e-5,-3.906811e-5,-6.836443e-5,532.9676,114.5751)"
         id="g472"><path
           id="path474"
           style="fill:none;stroke:#000000;stroke-width:19050;stroke-linecap:butt;stroke-linejoin:round;stroke-miterlimit:10;stroke-dasharray:none;stroke-opacity:1"
           d="M 0,270200.5 C 0,120972.9 91391.66,0 204129,0 316866.3,0 408258,120972.9 408258,270200.5 408258,419428.1 316866.3,540401 204129,540401 91391.66,540401 0,419428.1 0,270200.5 Z" /></g><g
         transform="matrix(6.836443e-5,-3.906811e-5,-3.906811e-5,-6.836443e-5,546.9227,106.6002)"
         id="g476"><path
           id="path478"
           style="fill:none;stroke:#000000;stroke-width:10000;stroke-linecap:butt;stroke-linejoin:round;stroke-miterlimit:10;stroke-dasharray:none;stroke-opacity:1"
           d="M 0,0 1,540401" /></g><path
         id="path480"
         style="fill:#ffffff;fill-opacity:1;fill-rule:evenodd;stroke:none"
         d="m 541.6758,88.36922 c 0.9254,1.61935 2.9884,2.1819 4.6077,1.25649 1.6194,-0.9254 2.1819,-2.98833 1.2565,-4.60767 -0.9254,-1.61935 -2.9883,-2.1819 -4.6077,-1.25649 -1.6193,0.9254 -2.1819,2.98833 -1.2565,4.60767 z" /><g
         transform="matrix(6.836443e-5,-3.906811e-5,-3.906811e-5,-6.836443e-5,543.3514,91.3013)"
         id="g482"><path
           id="path484"
           style="fill:none;stroke:#000000;stroke-width:19050;stroke-linecap:butt;stroke-linejoin:round;stroke-miterlimit:10;stroke-dasharray:none;stroke-opacity:1"
           d="M 0,42889 C 0,19202.06 19202.06,0 42889,0 66575.94,0 85778,19202.06 85778,42889 85778,66575.94 66575.94,85778 42889,85778 19202.06,85778 0,66575.94 0,42889 Z" /></g><path
         id="path486"
         style="fill:#ffffff;fill-opacity:1;fill-rule:evenodd;stroke:none"
         d="m 522.5992,84.19615 c 0.9254,1.61934 2.9884,2.18189 4.6077,1.25649 1.6194,-0.92541 2.1819,-2.98833 1.2565,-4.60768 -0.9254,-1.61934 -2.9883,-2.18189 -4.6077,-1.25649 -1.6193,0.92541 -2.1819,2.98833 -1.2565,4.60768 z" /><g
         transform="matrix(6.836443e-5,-3.906811e-5,-3.906811e-5,-6.836443e-5,524.2748,87.12823)"
         id="g488"><path
           id="path490"
           style="fill:none;stroke:#000000;stroke-width:19050;stroke-linecap:butt;stroke-linejoin:round;stroke-miterlimit:10;stroke-dasharray:none;stroke-opacity:1"
           d="M 0,42889 C 0,19202.06 19202.06,0 42889,0 66575.94,0 85778,19202.06 85778,42889 85778,66575.94 66575.94,85778 42889,85778 19202.06,85778 0,66575.94 0,42889 Z" /></g><path
         id="path492"
         style="fill:#ffffff;fill-opacity:1;fill-rule:evenodd;stroke:none"
         d="m 534.5305,77.3778 c 0.9254,1.61934 2.9883,2.18189 4.6077,1.25649 1.6193,-0.92541 2.1819,-2.98833 1.2565,-4.60768 -0.9254,-1.61934 -2.9884,-2.18189 -4.6077,-1.25649 -1.6193,0.92541 -2.1819,2.98833 -1.2565,4.60768 z" /><g
         transform="matrix(6.836443e-5,-3.906811e-5,-3.906811e-5,-6.836443e-5,536.2061,80.30988)"
         id="g494"><path
           id="path496"
           style="fill:none;stroke:#000000;stroke-width:19050;stroke-linecap:butt;stroke-linejoin:round;stroke-miterlimit:10;stroke-dasharray:none;stroke-opacity:1"
           d="M 0,42889 C 0,19202.06 19202.06,0 42889,0 66575.94,0 85778,19202.06 85778,42889 85778,66575.94 66575.94,85778 42889,85778 19202.06,85778 0,66575.94 0,42889 Z" /></g><path
         id="path498"
         style="fill:#ffffff;fill-opacity:1;fill-rule:evenodd;stroke:none"
         d="m 526.9607,96.59505 c 0.9254,1.61935 2.9884,2.1819 4.6077,1.25649 1.6193,-0.9254 2.1819,-2.98833 1.2565,-4.60767 -0.9254,-1.61935 -2.9883,-2.1819 -4.6077,-1.25649 -1.6193,0.9254 -2.1819,2.98833 -1.2565,4.60767 z" /><g
         transform="matrix(6.836443e-5,-3.906811e-5,-3.906811e-5,-6.836443e-5,528.6363,99.52713)"
         id="g500"><path
           id="path502"
           style="fill:none;stroke:#000000;stroke-width:19050;stroke-linecap:butt;stroke-linejoin:round;stroke-miterlimit:10;stroke-dasharray:none;stroke-opacity:1"
           d="M 0,42889 C 0,19202.06 19202.06,0 42889,0 66575.94,0 85778,19202.06 85778,42889 85778,66575.94 66575.94,85778 42889,85778 19202.06,85778 0,66575.94 0,42889 Z" /></g><path
         id="path504"
         style="fill:#ffffff;fill-opacity:1;fill-rule:evenodd;stroke:none"
         d="m 539.7671,101.2986 c 0.9254,1.6193 2.9883,2.1819 4.6077,1.2565 1.6193,-0.9254 2.1819,-2.98835 1.2565,-4.60769 -0.9254,-1.61935 -2.9884,-2.1819 -4.6077,-1.25649 -1.6194,0.9254 -2.1819,2.98833 -1.2565,4.60768 z" /><g
         transform="matrix(6.836443e-5,-3.906811e-5,-3.906811e-5,-6.836443e-5,541.4427,104.2307)"
         id="g506"><path
           id="path508"
           style="fill:none;stroke:#000000;stroke-width:19050;stroke-linecap:butt;stroke-linejoin:round;stroke-miterlimit:10;stroke-dasharray:none;stroke-opacity:1"
           d="M 0,42889 C 0,19202.06 19202.06,0 42889,0 66575.94,0 85778,19202.06 85778,42889 85778,66575.94 66575.94,85778 42889,85778 19202.06,85778 0,66575.94 0,42889 Z" /></g></g></g></svg>