<svg xmlns="http://www.w3.org/2000/svg" xmlns:xlink="http://www.w3.org/1999/xlink" contentStyleType="text/css" data-diagram-type="SEQUENCE" height="439px" preserveAspectRatio="none" style="width:899px;height:439px;background:#0B58A8;" version="1.1" viewBox="0 0 899 439" width="899px" zoomAndPan="magnify"><title>User Login Process</title><defs/><g><rect fill="#0B58A8" height="439" style="stroke:none;stroke-width:1;" width="899" x="0" y="0"/><text fill="#FFFFFF" font-family="Verdana" font-size="22" font-weight="bold" lengthAdjust="spacing" textLength="236.3711" x="338.2883" y="35.4209">User Login Process</text><g><title>. Web Browser</title><rect fill="#0B58A8" height="239.0625" style="stroke:#FFFFFF;stroke-width:1;" width="10" x="130.0767" y="175.1719"/></g><g><title>. Login Controller</title><rect fill="#0B58A8" height="180.7969" style="stroke:#FFFFFF;stroke-width:1;" width="10" x="340.3203" y="204.3047"/></g><g><title>. Auth Service</title><rect fill="#0B58A8" height="122.5313" style="stroke:#FFFFFF;stroke-width:1;" width="10" x="529.3247" y="233.4375"/></g><g><title>. User Database</title><rect fill="#0B58A8" height="29.1328" style="stroke:#FFFFFF;stroke-width:1;" width="10" x="763.8735" y="262.5703"/></g><g><title>. User</title><rect fill="#000000" fill-opacity="0.00000" height="303.3281" width="8" x="29.5386" y="128.9063"/><line style="stroke:#FFFFFF;stroke-width:1;stroke-dasharray:5,5;" x1="33" x2="33" y1="128.9063" y2="432.2344"/></g><g><title>. Web Browser</title><rect fill="#000000" fill-opacity="0.00000" height="303.3281" width="8" x="131.0767" y="128.9063"/><line style="stroke:#FFFFFF;stroke-width:1;stroke-dasharray:5,5;" x1="134.0771" x2="134.0771" y1="128.9063" y2="432.2344"/></g><g><title>. Login Controller</title><rect fill="#000000" fill-opacity="0.00000" height="303.3281" width="8" x="341.3203" y="128.9063"/><line style="stroke:#FFFFFF;stroke-width:1;stroke-dasharray:5,5;" x1="344.918" x2="344.918" y1="128.9063" y2="432.2344"/></g><g><title>. Auth Service</title><rect fill="#000000" fill-opacity="0.00000" height="303.3281" width="8" x="530.3247" y="128.9063"/><line style="stroke:#FFFFFF;stroke-width:1;stroke-dasharray:5,5;" x1="533.8433" x2="533.8433" y1="128.9063" y2="432.2344"/></g><g><title>. User Database</title><rect fill="#000000" fill-opacity="0.00000" height="303.3281" width="8" x="764.8735" y="128.9063"/><line style="stroke:#FFFFFF;stroke-width:1;stroke-dasharray:5,5;" x1="768.7095" x2="768.7095" y1="128.9063" y2="432.2344"/></g><g><title>User</title><rect fill="#000000" fill-opacity="0.00000" height="303.3281" width="8" x="866.9927" y="128.9063"/><line style="stroke:#FFFFFF;stroke-width:1;stroke-dasharray:5,5;" x1="870.0376" x2="870.0376" y1="128.9063" y2="432.2344"/></g><g class="participant participant-head" data-participant=". User"><text fill="#FFFFFF" font-family="Verdana" font-size="14" lengthAdjust="spacing" textLength="41.0771" x="10" y="125.6045">: User</text><ellipse cx="33.5386" cy="60.6094" fill="#0B58A8" rx="8" ry="8" style="stroke:#FFFFFF;stroke-width:1;"/><path d="M33.5386,68.6094 L33.5386,95.6094 M20.5386,76.6094 L46.5386,76.6094 M33.5386,95.6094 L20.5386,110.6094 M33.5386,95.6094 L46.5386,110.6094" fill="none" style="stroke:#FFFFFF;stroke-width:1;"/></g><g class="participant participant-head" data-participant="Browser"><rect fill="#0B58A8" height="46.5938" style="stroke:#FFFFFF;stroke-width:1;" width="115.999" x="77.0771" y="81.3125"/><text fill="#FFFFFF" font-family="Verdana" font-size="14" lengthAdjust="spacing" textLength="101.999" x="84.0771" y="101.3076">: Web Browser</text><text fill="#FFFFFF" font-family="Verdana" font-size="14" lengthAdjust="spacing" textLength="40.5303" x="114.8115" y="117.6045">Client</text></g><g class="participant participant-head" data-participant="Controller"><rect fill="#0B58A8" height="46.5938" style="stroke:#FFFFFF;stroke-width:1;" width="134.8047" x="277.918" y="81.3125"/><text fill="#FFFFFF" font-family="Verdana" font-size="14" lengthAdjust="spacing" textLength="120.8047" x="284.918" y="101.3076">: Login Controller</text><text fill="#FFFFFF" font-family="Verdana" font-size="14" lengthAdjust="spacing" textLength="45.9102" x="322.3652" y="117.6045">Server</text></g><g class="participant participant-head" data-participant="Auth"><rect fill="#0B58A8" height="46.5938" style="stroke:#FFFFFF;stroke-width:1;" width="172.9629" x="447.8433" y="81.3125"/><text fill="#FFFFFF" font-family="Verdana" font-size="14" lengthAdjust="spacing" textLength="98.1709" x="485.2393" y="101.3076">: Auth Service</text><text fill="#FFFFFF" font-family="Verdana" font-size="14" lengthAdjust="spacing" textLength="158.9629" x="454.8433" y="117.6045">Authentication Service</text></g><g class="participant participant-head" data-participant="DB"><text fill="#FFFFFF" font-family="Verdana" font-size="14" lengthAdjust="spacing" textLength="112.3281" x="709.7095" y="125.6045">: User Database</text><path d="M750.8735,76.6094 C750.8735,66.6094 768.8735,66.6094 768.8735,66.6094 C768.8735,66.6094 786.8735,66.6094 786.8735,76.6094 L786.8735,102.6094 C786.8735,112.6094 768.8735,112.6094 768.8735,112.6094 C768.8735,112.6094 750.8735,112.6094 750.8735,102.6094 L750.8735,76.6094" fill="#0B58A8" style="stroke:#FFFFFF;stroke-width:1;"/><path d="M750.8735,76.6094 C750.8735,86.6094 768.8735,86.6094 768.8735,86.6094 C768.8735,86.6094 786.8735,86.6094 786.8735,76.6094" fill="none" style="stroke:#FFFFFF;stroke-width:1;"/></g><g class="participant participant-head" data-participant="User"><rect fill="#0B58A8" height="30.2969" style="stroke:#FFFFFF;stroke-width:1;" width="45.9102" x="848.0376" y="97.6094"/><text fill="#FFFFFF" font-family="Verdana" font-size="14" lengthAdjust="spacing" textLength="31.9102" x="855.0376" y="117.6045">User</text></g><g><title>. Web Browser</title><rect fill="#0B58A8" height="239.0625" style="stroke:#FFFFFF;stroke-width:1;" width="10" x="130.0767" y="175.1719"/></g><g><title>. Login Controller</title><rect fill="#0B58A8" height="180.7969" style="stroke:#FFFFFF;stroke-width:1;" width="10" x="340.3203" y="204.3047"/></g><g><title>. Auth Service</title><rect fill="#0B58A8" height="122.5313" style="stroke:#FFFFFF;stroke-width:1;" width="10" x="529.3247" y="233.4375"/></g><g><title>. User Database</title><rect fill="#0B58A8" height="29.1328" style="stroke:#FFFFFF;stroke-width:1;" width="10" x="763.8735" y="262.5703"/></g><g class="message" data-participant-1="User" data-participant-2="Browser"><polygon fill="#FFFFFF" points="151.0767,171.1719,141.0767,175.1719,151.0767,179.1719,147.0767,175.1719" style="stroke:#FFFFFF;stroke-width:1;"/><line style="stroke:#FFFFFF;stroke-width:1;" x1="145.0767" x2="869.9927" y1="175.1719" y2="175.1719"/><text fill="#FFFFFF" font-family="Verdana" font-size="13" font-weight="bold" lengthAdjust="spacing" textLength="9.0454" x="157.0767" y="162.5396">1</text><text fill="#FFFFFF" font-family="Verdana" font-size="13" lengthAdjust="spacing" textLength="111.0649" x="170.1221" y="154.9731">Enter credentials</text><text fill="#FFFFFF" font-family="Verdana" font-size="13" lengthAdjust="spacing" textLength="101.7148" x="170.1221" y="170.106">(Username/PW)</text></g><g class="message" data-participant-1="Browser" data-participant-2="Controller"><polygon fill="#FFFFFF" points="328.3203,200.3047,338.3203,204.3047,328.3203,208.3047,332.3203,204.3047" style="stroke:#FFFFFF;stroke-width:1;"/><line style="stroke:#FFFFFF;stroke-width:1;" x1="140.0767" x2="334.3203" y1="204.3047" y2="204.3047"/><text fill="#FFFFFF" font-family="Verdana" font-size="13" font-weight="bold" lengthAdjust="spacing" textLength="9.0454" x="147.0767" y="199.2388">2</text><text fill="#FFFFFF" font-family="Verdana" font-size="13" lengthAdjust="spacing" textLength="160.7607" x="160.1221" y="199.2388">POST /login (credentials)</text></g><g class="message" data-participant-1="Controller" data-participant-2="Auth"><polygon fill="#FFFFFF" points="517.3247,229.4375,527.3247,233.4375,517.3247,237.4375,521.3247,233.4375" style="stroke:#FFFFFF;stroke-width:1;"/><line style="stroke:#FFFFFF;stroke-width:1;" x1="350.3203" x2="523.3247" y1="233.4375" y2="233.4375"/><text fill="#FFFFFF" font-family="Verdana" font-size="13" font-weight="bold" lengthAdjust="spacing" textLength="9.0454" x="357.3203" y="228.3716">3</text><text fill="#FFFFFF" font-family="Verdana" font-size="13" lengthAdjust="spacing" textLength="134.3799" x="370.3657" y="228.3716">validate(credentials)</text></g><g class="message" data-participant-1="Auth" data-participant-2="DB"><polygon fill="#FFFFFF" points="751.8735,258.5703,761.8735,262.5703,751.8735,266.5703,755.8735,262.5703" style="stroke:#FFFFFF;stroke-width:1;"/><line style="stroke:#FFFFFF;stroke-width:1;" x1="539.3247" x2="757.8735" y1="262.5703" y2="262.5703"/><text fill="#FFFFFF" font-family="Verdana" font-size="13" font-weight="bold" lengthAdjust="spacing" textLength="9.0454" x="546.3247" y="257.5044">4</text><text fill="#FFFFFF" font-family="Verdana" font-size="13" lengthAdjust="spacing" textLength="129.6763" x="559.3701" y="257.5044">findUser(username)</text></g><g class="message" data-participant-1="DB" data-participant-2="Auth"><polygon fill="#FFFFFF" points="550.3247,287.7031,540.3247,291.7031,550.3247,295.7031,546.3247,291.7031" style="stroke:#FFFFFF;stroke-width:1;"/><line style="stroke:#FFFFFF;stroke-width:1;stroke-dasharray:2,2;" x1="544.3247" x2="767.8735" y1="291.7031" y2="291.7031"/><text fill="#FFFFFF" font-family="Verdana" font-size="13" font-weight="bold" lengthAdjust="spacing" textLength="9.0454" x="556.3247" y="286.6372">5</text><text fill="#FFFFFF" font-family="Verdana" font-size="13" lengthAdjust="spacing" textLength="187.5034" x="569.3701" y="286.6372">return UserData (hashedPW)</text></g><path d="M544,304.7031 L544,329.7031 L731,329.7031 L731,314.7031 L721,304.7031 L544,304.7031" fill="#0B58A8" style="stroke:#FFFFFF;stroke-width:1;"/><path d="M721,304.7031 L721,314.7031 L731,314.7031 L721,304.7031" fill="#0B58A8" style="stroke:#FFFFFF;stroke-width:1;"/><text fill="#FFFFFF" font-family="Verdana" font-size="13" lengthAdjust="spacing" textLength="166.4863" x="550" y="321.77">Verifies hashed password</text><g class="message" data-participant-1="Auth" data-participant-2="Controller"><polygon fill="#FFFFFF" points="361.3203,351.9688,351.3203,355.9688,361.3203,359.9688,357.3203,355.9688" style="stroke:#FFFFFF;stroke-width:1;"/><line style="stroke:#FFFFFF;stroke-width:1;stroke-dasharray:2,2;" x1="355.3203" x2="533.3247" y1="355.9688" y2="355.9688"/><text fill="#FFFFFF" font-family="Verdana" font-size="13" font-weight="bold" lengthAdjust="spacing" textLength="9.0454" x="367.3203" y="350.9028">6</text><text fill="#FFFFFF" font-family="Verdana" font-size="13" lengthAdjust="spacing" textLength="141.959" x="380.3657" y="350.9028">Auth Result (Success)</text></g><g class="message" data-participant-1="Controller" data-participant-2="Browser"><polygon fill="#FFFFFF" points="151.0767,381.1016,141.0767,385.1016,151.0767,389.1016,147.0767,385.1016" style="stroke:#FFFFFF;stroke-width:1;"/><line style="stroke:#FFFFFF;stroke-width:1;stroke-dasharray:2,2;" x1="145.0767" x2="344.3203" y1="385.1016" y2="385.1016"/><text fill="#FFFFFF" font-family="Verdana" font-size="13" font-weight="bold" lengthAdjust="spacing" textLength="9.0454" x="157.0767" y="380.0356">7</text><text fill="#FFFFFF" font-family="Verdana" font-size="13" lengthAdjust="spacing" textLength="163.1982" x="170.1221" y="380.0356">HTTP 200 OK, Set Cookie</text></g><g class="message" data-participant-1="Browser" data-participant-2="User"><polygon fill="#FFFFFF" points="858.9927,410.2344,868.9927,414.2344,858.9927,418.2344,862.9927,414.2344" style="stroke:#FFFFFF;stroke-width:1;"/><line style="stroke:#FFFFFF;stroke-width:1;stroke-dasharray:2,2;" x1="135.0767" x2="864.9927" y1="414.2344" y2="414.2344"/><text fill="#FFFFFF" font-family="Verdana" font-size="13" font-weight="bold" lengthAdjust="spacing" textLength="9.0454" x="142.0767" y="409.1685">8</text><text fill="#FFFFFF" font-family="Verdana" font-size="13" lengthAdjust="spacing" textLength="146.1548" x="155.1221" y="409.1685">Show Dashboard Page</text></g><!--SRC=[TLB1Rjim3BthAxYSF615Wnvz6B0q1GgqG8qcNI-vq3OJ4xN5GAAJVVuanKwS0BrHJtnFxv7weGrr1DZn3at3DS5MH4lvP_mNspqwxC19R-jAd2K7SwEiBS673uTNsR65mab5tXk3lOhjkv9Sg2iL1xCyDSvC45AkU8zM8_X99IoS7CFTnZwsJ5PdW7x4RjjFxpoALITj6pahSeUW6paN-9RsfzS6OYTNjB7n5DxX2fN5ZdYIY5UcHiKIFOscOJa0gMMvC2QXTxz7bpayMGr8vQYEmjZwZSrYayMExelFdt4AV42bSp0p557cOZo7ucsrXlisvSmcWXE9IKvpgQDGj9_30LiE6UWRUifeqaW2PRd8OSksZcwpVh0ywOvnbmkuEwixqjxPD9Wu5yWQz0tLCMHDLpGheN2yQnHaEx3_akCjauSJ2_Re_L5SFHgwcKO2tydthKAswglulQxUEOMPJc6wbkVrke27-HpUNdw5FMlGbY-cgS1qcEUL18sF9B1gv1ZMxvjIqDLGuEwAF13-0m00]--></g></svg>