<svg xmlns="http://www.w3.org/2000/svg" xmlns:xlink="http://www.w3.org/1999/xlink" contentStyleType="text/css" data-diagram-type="STATE" height="726px" preserveAspectRatio="none" style="width:568px;height:726px;background:#FFFFFF;" version="1.1" viewBox="0 0 568 726" width="568px" zoomAndPan="magnify"><title>Order Lifecycle State Machine</title><defs/><g><g class="title" data-source-line="1"><text fill="#000000" font-family="sans-serif" font-size="14" font-weight="bold" lengthAdjust="spacing" textLength="237.4873" x="158.6638" y="22.9951">Order Lifecycle State Machine</text></g><ellipse cx="265.5" cy="53.2969" fill="#222222" rx="10" ry="10" style="stroke:#222222;stroke-width:1;"/><g id="Created"><rect fill="#F1F1F1" height="50" rx="12.5" ry="12.5" style="stroke:#181818;stroke-width:0.5;" width="75.7129" x="227.5" y="140.2969"/><line style="stroke:#181818;stroke-width:0.5;" x1="227.5" x2="303.2129" y1="166.5938" y2="166.5938"/><text fill="#000000" font-family="sans-serif" font-size="14" lengthAdjust="spacing" textLength="55.7129" x="237.5" y="158.292">Created</text></g><g id="Paid"><rect fill="#F1F1F1" height="50" rx="12.5" ry="12.5" style="stroke:#181818;stroke-width:0.5;" width="50" x="159.5" y="267.2969"/><line style="stroke:#181818;stroke-width:0.5;" x1="159.5" x2="209.5" y1="293.5938" y2="293.5938"/><text fill="#000000" font-family="sans-serif" font-size="14" lengthAdjust="spacing" textLength="29.7979" x="169.6011" y="285.292">Paid</text></g><g id="Shipped"><rect fill="#F1F1F1" height="50" rx="12.5" ry="12.5" style="stroke:#181818;stroke-width:0.5;" width="76.9229" x="7" y="427.2969"/><line style="stroke:#181818;stroke-width:0.5;" x1="7" x2="83.9229" y1="453.5938" y2="453.5938"/><text fill="#000000" font-family="sans-serif" font-size="14" lengthAdjust="spacing" textLength="56.9229" x="17" y="445.292">Shipped</text></g><g id="Delivered"><rect fill="#F1F1F1" height="50" rx="12.5" ry="12.5" style="stroke:#181818;stroke-width:0.5;" width="87.3271" x="41" y="587.2969"/><line style="stroke:#181818;stroke-width:0.5;" x1="41" x2="128.3271" y1="613.5938" y2="613.5938"/><text fill="#000000" font-family="sans-serif" font-size="14" lengthAdjust="spacing" textLength="67.3271" x="51" y="605.292">Delivered</text></g><g id="Cancelled"><rect fill="#F1F1F1" height="50" rx="12.5" ry="12.5" style="stroke:#181818;stroke-width:0.5;" width="88.8174" x="302" y="347.2969"/><line style="stroke:#181818;stroke-width:0.5;" x1="302" x2="390.8174" y1="373.5938" y2="373.5938"/><text fill="#000000" font-family="sans-serif" font-size="14" lengthAdjust="spacing" textLength="68.8174" x="312" y="365.292">Cancelled</text></g><g id="Refunded"><rect fill="#F1F1F1" height="50" rx="12.5" ry="12.5" style="stroke:#181818;stroke-width:0.5;" width="87.4023" x="177" y="507.2969"/><line style="stroke:#181818;stroke-width:0.5;" x1="177" x2="264.4023" y1="533.5938" y2="533.5938"/><text fill="#000000" font-family="sans-serif" font-size="14" lengthAdjust="spacing" textLength="67.4023" x="187" y="525.292">Refunded</text></g><ellipse cx="220.5" cy="709.2969" fill="none" rx="11" ry="11" style="stroke:#222222;stroke-width:1;"/><ellipse cx="220.5" cy="709.2969" fill="#222222" rx="6" ry="6" style="stroke:#222222;stroke-width:1;"/><g class="entity" data-entity="GMN2" data-source-line="22" data-uid="ent0003" id="entity_GMN2"><path d="M339,145.2969 L339,161.2969 L303.54,165.2969 L339,169.2969 L339,185.5625 A0,0 0 0 0 339,185.5625 L493.5483,185.5625 A0,0 0 0 0 493.5483,185.5625 L493.5483,155.2969 L483.5483,145.2969 L339,145.2969 A0,0 0 0 0 339,145.2969" fill="#FEFFDD" style="stroke:#181818;stroke-width:0.5;"/><path d="M483.5483,145.2969 L483.5483,155.2969 L493.5483,155.2969 L483.5483,145.2969" fill="#FEFFDD" style="stroke:#181818;stroke-width:0.5;"/><text fill="#000000" font-family="sans-serif" font-size="13" lengthAdjust="spacing" textLength="133.5483" x="345" y="162.3638">Initial entry state for</text><text fill="#000000" font-family="sans-serif" font-size="13" lengthAdjust="spacing" textLength="76.8003" x="345" y="177.4966">new orders.</text></g><!--link *start* to Created--><g class="link" data-entity-1=".start." data-entity-2="Created" data-source-line="4" data-uid="lnk4" id="link_.start._Created"><path d="M265.5,63.2969 C265.5,79.9269 265.5,109.9569 265.5,134.1669" fill="none" id="*start*-to-Created" style="stroke:#181818;stroke-width:1;"/><polygon fill="#181818" points="265.5,140.1669,269.5,131.1669,265.5,135.1669,261.5,131.1669,265.5,140.1669" style="stroke:#181818;stroke-width:1;"/><text fill="#000000" font-family="sans-serif" font-size="13" lengthAdjust="spacing" textLength="171.4756" x="266.5" y="106.3638">Order Placed by Customer</text></g><!--link Created to Paid--><g class="link" data-entity-1="Created" data-entity-2="Paid" data-source-line="7" data-uid="lnk6" id="link_Created_Paid"><path d="M227.13,180.7969 C209.92,189.4669 191.3,202.3369 181.5,220.2969 C173.76,234.4869 173.5825,246.8457 176.3725,261.2957" fill="none" id="Created-to-Paid" style="stroke:#181818;stroke-width:1;"/><polygon fill="#181818" points="177.51,267.1869,179.7313,257.5918,176.5621,262.2775,171.8763,259.1084,177.51,267.1869" style="stroke:#181818;stroke-width:1;"/><text fill="#000000" font-family="sans-serif" font-size="13" lengthAdjust="spacing" textLength="120.4531" x="182.5" y="233.3638">payment_received</text></g><!--link Paid to Shipped--><g class="link" data-entity-1="Paid" data-entity-2="Shipped" data-source-line="8" data-uid="lnk8" id="link_Paid_Shipped"><path d="M159.29,294.6269 C126.09,297.8869 68.85,309.0769 42.5,347.2969 C26.4,370.6469 29.621,398.673 35.721,421.343" fill="none" id="Paid-to-Shipped" style="stroke:#181818;stroke-width:1;"/><polygon fill="#181818" points="37.28,427.1369,38.8041,417.4067,35.9808,422.3086,31.0789,419.4853,37.28,427.1369" style="stroke:#181818;stroke-width:1;"/><text fill="#000000" font-family="sans-serif" font-size="13" lengthAdjust="spacing" textLength="107.4595" x="43.5" y="376.8638">item_dispatched</text></g><!--link Shipped to Delivered--><g class="link" data-entity-1="Shipped" data-entity-2="Delivered" data-source-line="9" data-uid="lnk10" id="link_Shipped_Delivered"><path d="M36.25,477.7069 C29.52,499.3569 23.23,531.4569 33.5,557.2969 C37.93,568.4369 41.6578,574.344 49.9778,582.784" fill="none" id="Shipped-to-Delivered" style="stroke:#181818;stroke-width:1;"/><polygon fill="#181818" points="54.19,587.0569,50.7204,577.8394,50.6799,583.4961,45.0232,583.4556,54.19,587.0569" style="stroke:#181818;stroke-width:1;"/><text fill="#000000" font-family="sans-serif" font-size="13" lengthAdjust="spacing" textLength="124.4902" x="34.5" y="536.8638">delivery_confirmed</text></g><!--link Created to Cancelled--><g class="link" data-entity-1="Created" data-entity-2="Cancelled" data-source-line="12" data-uid="lnk12" id="link_Created_Cancelled"><path d="M287.66,190.4069 C294.86,199.2769 302.31,209.7469 307.5,220.2969 C328.16,262.3369 337.808,310.5851 342.478,341.2951" fill="none" id="Created-to-Cancelled" style="stroke:#181818;stroke-width:1;"/><polygon fill="#181818" points="343.38,347.2269,345.9815,337.7278,342.6283,342.2837,338.0724,338.9305,343.38,347.2269" style="stroke:#181818;stroke-width:1;"/><text fill="#000000" font-family="sans-serif" font-size="13" lengthAdjust="spacing" textLength="244.3149" x="316.5" y="233.3638">customer_cancels / payment_timeout</text></g><!--link Paid to Refunded--><g class="link" data-entity-1="Paid" data-entity-2="Refunded" data-source-line="13" data-uid="lnk14" id="link_Paid_Refunded"><path d="M183.41,317.4869 C183.04,326.7969 182.68,337.5369 182.5,347.2969 C182.09,369.5169 179.44,375.2869 182.5,397.2969 C187.96,436.5769 200.0148,474.8719 209.4148,501.3819" fill="none" id="Paid-to-Refunded" style="stroke:#181818;stroke-width:1;"/><polygon fill="#181818" points="211.42,507.0369,212.1823,497.2176,209.749,502.3244,204.6422,499.8911,211.42,507.0369" style="stroke:#181818;stroke-width:1;"/><text fill="#000000" font-family="sans-serif" font-size="13" lengthAdjust="spacing" textLength="100.2485" x="183.5" y="376.8638">return_initiated</text></g><!--link Delivered to *end*--><g class="link" data-entity-1="Delivered" data-entity-2=".end." data-source-line="16" data-uid="lnk16" id="link_Delivered_.end."><path d="M119.17,637.5169 C150.18,659.1769 188.5512,685.981 206.8612,698.771" fill="none" id="Delivered-to-*end*" style="stroke:#181818;stroke-width:1;"/><polygon fill="#181818" points="211.78,702.2069,206.6924,693.7738,207.681,699.3436,202.1112,700.3322,211.78,702.2069" style="stroke:#181818;stroke-width:1;"/></g><!--link Cancelled to *end*--><g class="link" data-entity-1="Cancelled" data-entity-2=".end." data-source-line="17" data-uid="lnk17" id="link_Cancelled_.end."><path d="M340.52,397.4169 C327.32,448.7969 293.11,572.1969 246.5,668.2969 C240.86,679.9269 235.9764,687.3898 230.2564,695.2298" fill="none" id="Cancelled-to-*end*" style="stroke:#181818;stroke-width:1;"/><polygon fill="#181818" points="226.72,700.0769,235.2559,695.1639,229.667,696.0377,228.7932,690.4487,226.72,700.0769" style="stroke:#181818;stroke-width:1;"/></g><!--link Refunded to *end*--><g class="link" data-entity-1="Refunded" data-entity-2=".end." data-source-line="18" data-uid="lnk18" id="link_Refunded_.end."><path d="M220.5,557.6269 C220.5,596.5069 220.5,665.0269 220.5,692.1269" fill="none" id="Refunded-to-*end*" style="stroke:#181818;stroke-width:1;"/><polygon fill="#181818" points="220.5,698.1269,224.5,689.1269,220.5,693.1269,216.5,689.1269,220.5,698.1269" style="stroke:#181818;stroke-width:1;"/></g><!--SRC=[RP51JyCm38Nl-HM-JK8Qt3aWeJ444eYA7H6gJEAkbjgaIjoD_dkShDr0eeUgzdjv_M8BIqVm5Xr5UE66x6IrtWaAmIlQbZqPiu9dpyBOGIg2HFH96y6RZwjFMA_lO1D95GUtSrRLeTNoQuBDc2Jq57ECvdg7qS7g2OTXWWgbNVsAIt1aQM5x82_9B9avlqBEuGDElMfr94jy86TAFnjsBGz30M2XldQS1XJRgcLHikk1EZqMYy-TlgVQ1jzmxDMgY1lqbheECmueBTntGj5hVI3zlRH_kMPx2RJpJMjRcWbkphp2FOLHBhZlr8pUbMEHP8o-vZ9YEL4yilzdsibS-7E83jzS09REENffQDxs6_j15niQGEVOxm711o6JNn1vtqhMvfiPq6TPkUB7QKPfGYoQfoE4lETqRKXdb5D-0000]--></g></svg>